<svg preserveAspectRatio="none" overflow="visible" style="display: block;" width="452" height="190" viewBox="0 0 452 190" fill="none" xmlns="http://www.w3.org/2000/svg">
<g id="ticket" filter="url(#filter0_d_0_71)">
<circle id="Ellipse 26583" cx="111" cy="183" r="3" fill="white"/>
<circle id="Ellipse 26664" cx="111" cy="3" r="3" fill="white"/>
<circle id="Ellipse 26623" cx="351" cy="183" r="3" fill="white"/>
<circle id="Ellipse 26665" cx="351" cy="3" r="3" fill="white"/>
<circle id="Ellipse 26624" cx="231" cy="183" r="3" fill="white"/>
<circle id="Ellipse 26666" cx="231" cy="3" r="3" fill="white"/>
<circle id="Ellipse 26593" cx="171" cy="183" r="3" fill="white"/>
<circle id="Ellipse 26667" cx="171" cy="3" r="3" fill="white"/>
<circle id="Ellipse 26625" cx="411" cy="183" r="3" fill="white"/>
<circle id="Ellipse 26668" cx="411" cy="3" r="3" fill="white"/>
<circle id="Ellipse 26604" cx="51" cy="183" r="3" fill="white"/>
<circle id="Ellipse 26669" cx="51" cy="3" r="3" fill="white"/>
<circle id="Ellipse 26626" cx="291" cy="183" r="3" fill="white"/>
<circle id="Ellipse 26670" cx="291" cy="3" r="3" fill="white"/>
<circle id="Ellipse 26588" cx="141" cy="183" r="3" fill="white"/>
<circle id="Ellipse 26671" cx="141" cy="3" r="3" fill="white"/>
<circle id="Ellipse 26627" cx="381" cy="183" r="3" fill="white"/>
<circle id="Ellipse 26672" cx="381" cy="3" r="3" fill="white"/>
<circle id="Ellipse 26628" cx="261" cy="183" r="3" fill="white"/>
<circle id="Ellipse 26673" cx="261" cy="3" r="3" fill="white"/>
<circle id="Ellipse 26594" cx="201" cy="183" r="3" fill="white"/>
<circle id="Ellipse 26674" cx="201" cy="3" r="3" fill="white"/>
<circle id="Ellipse 26606" cx="81" cy="183" r="3" fill="white"/>
<circle id="Ellipse 26675" cx="81" cy="3" r="3" fill="white"/>
<circle id="Ellipse 26630" cx="321" cy="183" r="3" fill="white"/>
<circle id="Ellipse 26676" cx="321" cy="3" r="3" fill="white"/>
<circle id="Ellipse 26584" cx="117" cy="183" r="3" fill="white"/>
<circle id="Ellipse 26677" cx="117" cy="3" r="3" fill="white"/>
<circle id="Ellipse 26631" cx="357" cy="183" r="3" fill="white"/>
<circle id="Ellipse 26678" cx="357" cy="3" r="3" fill="white"/>
<circle id="Ellipse 26632" cx="237" cy="183" r="3" fill="white"/>
<circle id="Ellipse 26679" cx="237" cy="3" r="3" fill="white"/>
<circle id="Ellipse 26595" cx="177" cy="183" r="3" fill="white"/>
<circle id="Ellipse 26680" cx="177" cy="3" r="3" fill="white"/>
<circle id="Ellipse 26633" cx="417" cy="183" r="3" fill="white"/>
<circle id="Ellipse 26681" cx="417" cy="3" r="3" fill="white"/>
<circle id="Ellipse 26608" cx="57" cy="183" r="3" fill="white"/>
<circle id="Ellipse 26682" cx="57" cy="3" r="3" fill="white"/>
<circle id="Ellipse 26634" cx="297" cy="183" r="3" fill="white"/>
<circle id="Ellipse 26683" cx="297" cy="3" r="3" fill="white"/>
<circle id="Ellipse 26589" cx="147" cy="183" r="3" fill="white"/>
<circle id="Ellipse 26684" cx="147" cy="3" r="3" fill="white"/>
<circle id="Ellipse 26635" cx="387" cy="183" r="3" fill="white"/>
<circle id="Ellipse 26685" cx="387" cy="3" r="3" fill="white"/>
<circle id="Ellipse 26636" cx="267" cy="183" r="3" fill="white"/>
<circle id="Ellipse 26686" cx="267" cy="3" r="3" fill="white"/>
<circle id="Ellipse 26596" cx="207" cy="183" r="3" fill="white"/>
<circle id="Ellipse 26687" cx="207" cy="3" r="3" fill="white"/>
<circle id="Ellipse 26610" cx="87" cy="183" r="3" fill="white"/>
<circle id="Ellipse 26688" cx="87" cy="3" r="3" fill="white"/>
<circle id="Ellipse 26638" cx="327" cy="183" r="3" fill="white"/>
<circle id="Ellipse 26689" cx="327" cy="3" r="3" fill="white"/>
<circle id="Ellipse 26585" cx="123" cy="183" r="3" fill="white"/>
<circle id="Ellipse 26690" cx="123" cy="3" r="3" fill="white"/>
<circle id="Ellipse 26639" cx="363" cy="183" r="3" fill="white"/>
<circle id="Ellipse 26691" cx="363" cy="3" r="3" fill="white"/>
<circle id="Ellipse 26640" cx="243" cy="183" r="3" fill="white"/>
<circle id="Ellipse 26692" cx="243" cy="3" r="3" fill="white"/>
<circle id="Ellipse 26597" cx="183" cy="183" r="3" fill="white"/>
<circle id="Ellipse 26693" cx="183" cy="3" r="3" fill="white"/>
<circle id="Ellipse 26612" cx="63" cy="183" r="3" fill="white"/>
<circle id="Ellipse 26694" cx="63" cy="3" r="3" fill="white"/>
<circle id="Ellipse 26642" cx="303" cy="183" r="3" fill="white"/>
<circle id="Ellipse 26695" cx="303" cy="3" r="3" fill="white"/>
<circle id="Ellipse 26590" cx="153" cy="183" r="3" fill="white"/>
<circle id="Ellipse 26696" cx="153" cy="3" r="3" fill="white"/>
<circle id="Ellipse 26643" cx="393" cy="183" r="3" fill="white"/>
<circle id="Ellipse 26697" cx="393" cy="3" r="3" fill="white"/>
<circle id="Ellipse 26613" cx="33" cy="183" r="3" fill="white"/>
<circle id="Ellipse 26698" cx="33" cy="3" r="3" fill="white"/>
<circle id="Ellipse 26644" cx="273" cy="183" r="3" fill="white"/>
<circle id="Ellipse 26699" cx="273" cy="3" r="3" fill="white"/>
<circle id="Ellipse 26598" cx="213" cy="183" r="3" fill="white"/>
<circle id="Ellipse 26700" cx="213" cy="3" r="3" fill="white"/>
<circle id="Ellipse 26614" cx="93" cy="183" r="3" fill="white"/>
<circle id="Ellipse 26701" cx="93" cy="3" r="3" fill="white"/>
<circle id="Ellipse 26646" cx="333" cy="183" r="3" fill="white"/>
<circle id="Ellipse 26702" cx="333" cy="3" r="3" fill="white"/>
<circle id="Ellipse 26586" cx="129" cy="183" r="3" fill="white"/>
<circle id="Ellipse 26703" cx="129" cy="3" r="3" fill="white"/>
<circle id="Ellipse 26647" cx="369" cy="183" r="3" fill="white"/>
<circle id="Ellipse 26704" cx="369" cy="3" r="3" fill="white"/>
<circle id="Ellipse 26648" cx="249" cy="183" r="3" fill="white"/>
<circle id="Ellipse 26705" cx="249" cy="3" r="3" fill="white"/>
<circle id="Ellipse 26599" cx="189" cy="183" r="3" fill="white"/>
<circle id="Ellipse 26706" cx="189" cy="3" r="3" fill="white"/>
<circle id="Ellipse 26616" cx="69" cy="183" r="3" fill="white"/>
<circle id="Ellipse 26707" cx="69" cy="3" r="3" fill="white"/>
<circle id="Ellipse 26650" cx="309" cy="183" r="3" fill="white"/>
<circle id="Ellipse 26708" cx="309" cy="3" r="3" fill="white"/>
<circle id="Ellipse 26591" cx="159" cy="183" r="3" fill="white"/>
<circle id="Ellipse 26709" cx="159" cy="3" r="3" fill="white"/>
<circle id="Ellipse 26651" cx="399" cy="183" r="3" fill="white"/>
<circle id="Ellipse 26710" cx="399" cy="3" r="3" fill="white"/>
<circle id="Ellipse 26617" cx="39" cy="183" r="3" fill="white"/>
<circle id="Ellipse 26711" cx="39" cy="3" r="3" fill="white"/>
<circle id="Ellipse 26652" cx="279" cy="183" r="3" fill="white"/>
<circle id="Ellipse 26712" cx="279" cy="3" r="3" fill="white"/>
<circle id="Ellipse 26600" cx="219" cy="183" r="3" fill="white"/>
<circle id="Ellipse 26713" cx="219" cy="3" r="3" fill="white"/>
<circle id="Ellipse 26618" cx="99" cy="183" r="3" fill="white"/>
<circle id="Ellipse 26714" cx="99" cy="3" r="3" fill="white"/>
<circle id="Ellipse 26654" cx="339" cy="183" r="3" fill="white"/>
<circle id="Ellipse 26715" cx="339" cy="3" r="3" fill="white"/>
<circle id="Ellipse 26587" cx="135" cy="183" r="3" fill="white"/>
<circle id="Ellipse 26716" cx="135" cy="3" r="3" fill="white"/>
<circle id="Ellipse 26655" cx="375" cy="183" r="3" fill="white"/>
<circle id="Ellipse 26717" cx="375" cy="3" r="3" fill="white"/>
<path id="Subtract" d="M420 3C420 19.5685 433.431 33 450 33C448.343 33 447 34.3431 447 36C447 37.6569 448.343 39 450 39C448.343 39 447 40.3431 447 42C447 43.6569 448.343 45 450 45C448.343 45 447 46.3431 447 48C447 49.6569 448.343 51 450 51C448.343 51 447 52.3431 447 54C447 55.6569 448.343 57 450 57C448.343 57 447 58.3431 447 60C447 61.6569 448.343 63 450 63C448.343 63 447 64.3431 447 66C447 67.6569 448.343 69 450 69C448.343 69 447 70.3431 447 72C447 73.6569 448.343 75 450 75C448.343 75 447 76.3431 447 78C447 79.6569 448.343 81 450 81C448.343 81 447 82.3431 447 84C447 85.6569 448.343 87 450 87C448.343 87 447 88.3431 447 90C447 91.6569 448.343 93 450 93C448.343 93 447 94.3431 447 96C447 97.6569 448.343 99 450 99C448.343 99 447 100.343 447 102C447 103.657 448.343 105 450 105C448.343 105 447 106.343 447 108C447 109.657 448.343 111 450 111C448.343 111 447 112.343 447 114C447 115.657 448.343 117 450 117C448.343 117 447 118.343 447 120C447 121.657 448.343 123 450 123C448.343 123 447 124.343 447 126C447 127.657 448.343 129 450 129C448.343 129 447 130.343 447 132C447 133.657 448.343 135 450 135C448.343 135 447 136.343 447 138C447 139.657 448.343 141 450 141C448.343 141 447 142.343 447 144C447 145.657 448.343 147 450 147C448.343 147 447 148.343 447 150C447 151.657 448.343 153 450 153C433.431 153 420 166.431 420 183H30C30 166.431 16.5685 153 0 153C1.65685 153 3 151.657 3 150C3 148.343 1.65685 147 0 147C1.65685 147 3 145.657 3 144C3 142.343 1.65685 141 0 141C1.65685 141 3 139.657 3 138C3 136.343 1.65685 135 0 135C1.65685 135 3 133.657 3 132C3 130.343 1.65685 129 0 129C1.65685 129 3 127.657 3 126C3 124.343 1.65685 123 0 123C1.65685 123 3 121.657 3 120C3 118.343 1.65685 117 0 117C1.65685 117 3 115.657 3 114C3 112.343 1.65685 111 0 111C1.65685 111 3 109.657 3 108C3 106.343 1.65685 105 0 105C1.65685 105 3 103.657 3 102C3 100.343 1.65685 99 0 99C1.65685 99 3 97.6569 3 96C3 94.3431 1.65685 93 0 93C1.65685 93 3 91.6569 3 90C3 88.3431 1.65685 87 0 87C1.65685 87 3 85.6569 3 84C3 82.3431 1.65685 81 0 81C1.65685 81 3 79.6569 3 78C3 76.3431 1.65685 75 0 75C1.65685 75 3 73.6569 3 72C3 70.3431 1.65685 69 0 69C1.65685 69 3 67.6569 3 66C3 64.3431 1.65685 63 0 63C1.65685 63 3 61.6569 3 60C3 58.3431 1.65685 57 0 57C1.65685 57 3 55.6569 3 54C3 52.3431 1.65685 51 0 51C1.65685 51 3 49.6569 3 48C3 46.3431 1.65685 45 0 45C1.65685 45 3 43.6569 3 42C3 40.3431 1.65685 39 0 39C1.65685 39 3 37.6569 3 36C3 34.3431 1.65685 33 0 33C16.5685 33 30 19.5685 30 3H420Z" fill="white"/>
<circle id="Ellipse 26656" cx="255" cy="183" r="3" fill="white"/>
<circle id="Ellipse 26718" cx="255" cy="3" r="3" fill="white"/>
<circle id="Ellipse 26601" cx="195" cy="183" r="3" fill="white"/>
<circle id="Ellipse 26719" cx="195" cy="3" r="3" fill="white"/>
<circle id="Ellipse 26620" cx="75" cy="183" r="3" fill="white"/>
<circle id="Ellipse 26720" cx="75" cy="3" r="3" fill="white"/>
<circle id="Ellipse 26658" cx="315" cy="183" r="3" fill="white"/>
<circle id="Ellipse 26721" cx="315" cy="3" r="3" fill="white"/>
<circle id="Ellipse 26592" cx="165" cy="183" r="3" fill="white"/>
<circle id="Ellipse 26722" cx="165" cy="3" r="3" fill="white"/>
<circle id="Ellipse 26659" cx="405" cy="183" r="3" fill="white"/>
<circle id="Ellipse 26723" cx="405" cy="3" r="3" fill="white"/>
<circle id="Ellipse 26621" cx="45" cy="183" r="3" fill="white"/>
<circle id="Ellipse 26724" cx="45" cy="3" r="3" fill="white"/>
<circle id="Ellipse 26660" cx="285" cy="183" r="3" fill="white"/>
<circle id="Ellipse 26725" cx="285" cy="3" r="3" fill="white"/>
<circle id="Ellipse 26602" cx="225" cy="183" r="3" fill="white"/>
<circle id="Ellipse 26726" cx="225" cy="3" r="3" fill="white"/>
<circle id="Ellipse 26622" cx="105" cy="183" r="3" fill="white"/>
<circle id="Ellipse 26727" cx="105" cy="3" r="3" fill="white"/>
<circle id="Ellipse 26662" cx="345" cy="183" r="3" fill="white"/>
<circle id="Ellipse 26728" cx="345" cy="3" r="3" fill="white"/>
</g>
<defs>
<filter id="filter0_d_0_71" x="0" y="0" width="452" height="190" filterUnits="userSpaceOnUse" color-interpolation-filters="sRGB">
<feFlood flood-opacity="0" result="BackgroundImageFix"/>
<feColorMatrix in="SourceAlpha" type="matrix" values="0 0 0 0 0 0 0 0 0 0 0 0 0 0 0 0 0 0 127 0" result="hardAlpha"/>
<feOffset dx="2" dy="4"/>
<feComposite in2="hardAlpha" operator="out"/>
<feColorMatrix type="matrix" values="0 0 0 0 0.729412 0 0 0 0 0.592157 0 0 0 0 0.639216 0 0 0 1 0"/>
<feBlend mode="normal" in2="BackgroundImageFix" result="effect1_dropShadow_0_71"/>
<feBlend mode="normal" in="SourceGraphic" in2="effect1_dropShadow_0_71" result="shape"/>
</filter>
</defs>
</svg>
