<svg width="159" height="36" viewBox="0 0 159 36" fill="none" xmlns="http://www.w3.org/2000/svg">
<path d="M148.909 0.314135C150.197 0.269167 151.32 1.04409 151.784 2.16903C152.311 1.56403 153.076 1.16923 153.941 1.13903C155.597 1.08121 156.986 2.37666 157.044 4.0325C157.074 4.89746 156.733 5.68725 156.166 6.25493C157.321 6.6394 158.173 7.7064 158.218 8.99456C158.276 10.6504 156.98 12.0396 155.324 12.0974C156.98 12.0396 158.369 13.3351 158.427 14.9909C158.485 16.6467 157.19 18.036 155.534 18.0938C157.19 18.036 158.579 19.3314 158.637 20.9872C158.682 22.2753 157.906 23.3982 156.781 23.8624C157.386 24.3891 157.782 25.1539 157.812 26.0191C157.87 27.6749 156.574 29.0641 154.918 29.122C154.053 29.1522 153.263 28.811 152.695 28.244C152.31 29.399 151.244 30.2509 149.956 30.2959C148.3 30.3537 146.911 29.0582 146.853 27.4024C146.911 29.0582 145.616 30.4474 143.96 30.5053C142.304 30.5631 140.915 29.2676 140.857 27.6118C140.915 29.2676 139.619 30.6568 137.964 30.7147C136.308 30.7725 134.918 29.477 134.861 27.8212C134.918 29.477 133.623 30.8662 131.967 30.9241C130.311 30.9819 128.922 29.6864 128.864 28.0306C128.922 29.6864 127.627 31.0756 125.971 31.1334C124.315 31.1913 122.926 29.8958 122.868 28.24C122.926 29.8958 121.63 31.285 119.974 31.3428C118.319 31.4007 116.929 30.1052 116.872 28.4494C116.929 30.1052 115.634 31.4944 113.978 31.5522C112.322 31.6101 110.933 30.3146 110.875 28.6588C110.933 30.3146 109.638 31.7038 107.982 31.7616C106.326 31.8195 104.937 30.524 104.879 28.8682C104.937 30.524 103.641 31.9132 101.985 31.971C100.33 32.0289 98.9404 30.7334 98.8826 29.0776C98.9404 30.7334 97.645 32.1226 95.9891 32.1804C94.3333 32.2383 92.9441 30.9428 92.8862 29.287C92.9441 30.9428 91.6486 32.332 89.9928 32.3898C88.3369 32.4477 86.9477 31.1522 86.8899 29.4964C86.9477 31.1522 85.6523 32.5414 83.9964 32.5992C82.3406 32.6571 80.9514 31.3616 80.8936 29.7058C80.9514 31.3616 79.6559 32.7508 78.0001 32.8086C76.3442 32.8664 74.955 31.571 74.8972 29.9152C74.955 31.571 73.6596 32.9602 72.0037 33.018C70.3479 33.0758 68.9587 31.7804 68.9009 30.1245C68.9587 31.7804 67.6632 33.1696 66.0074 33.2274C64.3515 33.2852 62.9623 31.9898 62.9045 30.3339C62.9623 31.9898 61.6669 33.379 60.011 33.4368C58.3552 33.4946 56.966 32.1992 56.9082 30.5433C56.966 32.1992 55.6705 33.5884 54.0147 33.6462C52.3589 33.704 50.9697 32.4086 50.9118 30.7527C50.9697 32.4086 49.6742 33.7978 48.0184 33.8556C46.3625 33.9134 44.9733 32.618 44.9155 30.9621C44.9733 32.618 43.6779 34.0072 42.022 34.065C40.3662 34.1228 38.977 32.8274 38.9191 31.1715C38.977 32.8274 37.6815 34.2166 36.0257 34.2744C34.3698 34.3322 32.9806 33.0368 32.9228 31.3809C32.9806 33.0368 31.6852 34.426 30.0293 34.4838C28.3735 34.5416 26.9843 33.2462 26.9264 31.5903C26.9843 33.2462 25.6888 34.6354 24.033 34.6932C22.3771 34.751 20.9879 33.4556 20.9301 31.7997C20.9192 31.4881 20.9552 31.1857 21.0335 30.9001C20.5091 31.4705 19.7669 31.8403 18.9313 31.8695C17.2755 31.9273 15.8863 30.6319 15.8285 28.976C15.8176 28.6645 15.8535 28.362 15.9319 28.0764C15.4074 28.6469 14.6653 29.0167 13.8297 29.0458C12.1738 29.1037 10.7846 27.8082 10.7268 26.1524C10.7159 25.8408 10.7519 25.5383 10.8302 25.2527C10.3058 25.8232 9.56364 26.193 8.72802 26.2222C7.07217 26.28 5.68297 24.9845 5.62515 23.3287C5.61426 23.0171 5.65023 22.7147 5.72858 22.429C5.20412 22.9995 4.46199 23.3693 3.62636 23.3985C1.97052 23.4563 0.581316 22.1609 0.523492 20.505C0.465669 18.8492 1.76112 17.46 3.41697 17.4022C4.25234 17.373 5.01873 17.6894 5.58165 18.2216C5.48376 17.9424 5.42662 17.6436 5.41575 17.3324C5.35792 15.6765 6.65338 14.2873 8.30922 14.2295C9.1446 14.2003 9.91098 14.5168 10.4739 15.049C10.376 14.7698 10.3189 14.471 10.308 14.1597C10.2502 12.5038 11.5456 11.1146 13.2015 11.0568C14.0369 11.0276 14.8032 11.3441 15.3662 11.8763C15.2683 11.5971 15.2111 11.2983 15.2003 10.987C15.1424 9.33117 16.4379 7.94197 18.0937 7.88414C18.9291 7.85497 19.6955 8.17142 20.2584 8.70363C20.1605 8.42442 20.1034 8.12561 20.0925 7.81434C20.0347 6.1585 21.3301 4.7693 22.986 4.71147C24.6418 4.65365 26.031 5.9491 26.0889 7.60495C26.031 5.9491 27.3265 4.5599 28.9823 4.50207C30.6382 4.44425 32.0274 5.7397 32.0852 7.39555C32.0274 5.7397 33.3228 4.3505 34.9787 4.29268C36.6345 4.23485 38.0237 5.53031 38.0816 7.18615C38.0237 5.53031 39.3192 4.1411 40.975 4.08328C42.6309 4.02546 44.0201 5.32091 44.0779 6.97675C44.0201 5.32091 45.3155 3.93171 46.9714 3.87388C48.6272 3.81606 50.0164 5.11151 50.0742 6.76736C50.0164 5.11151 51.3119 3.72231 52.9677 3.66449C54.6236 3.60666 56.0128 4.90212 56.0706 6.55796C56.0128 4.90212 57.3082 3.51291 58.9641 3.45509C60.6199 3.39727 62.0091 4.69272 62.0669 6.34856C62.0091 4.69272 63.3046 3.30352 64.9604 3.24569C66.6162 3.18787 68.0055 4.48332 68.0633 6.13917C68.0055 4.48332 69.3009 3.09412 70.9567 3.0363C72.6126 2.97847 74.0018 4.27393 74.0596 5.92977C74.0018 4.27393 75.2972 2.88472 76.9531 2.8269C78.6089 2.76908 79.9981 4.06453 80.056 5.72037C79.9981 4.06453 81.2936 2.67533 82.9494 2.6175C84.6053 2.55968 85.9945 3.85513 86.0523 5.51098C85.9945 3.85513 87.2899 2.46593 88.9458 2.40811C90.6016 2.35028 91.9908 3.64573 92.0487 5.30158C91.9908 3.64573 93.2863 2.25653 94.9421 2.19871C96.598 2.14088 97.9872 3.43634 98.045 5.09218C97.9872 3.43634 99.2826 2.04713 100.938 1.98931C102.594 1.93149 103.984 3.22694 104.041 4.88279C103.984 3.22694 105.279 1.83774 106.935 1.77991C108.591 1.72209 109.98 3.01754 110.038 4.67339C109.98 3.01754 111.275 1.62834 112.931 1.57052C114.587 1.51269 115.976 2.80815 116.034 4.46399C115.976 2.80815 117.272 1.41894 118.928 1.36112C120.583 1.3033 121.973 2.59875 122.03 4.25459C121.973 2.59875 123.268 1.20955 124.924 1.15172C126.58 1.0939 127.969 2.38935 128.027 4.0452C127.969 2.38935 129.264 1.00015 130.92 0.942326C132.576 0.884503 133.965 2.17996 134.023 3.8358C133.965 2.17996 135.261 0.790753 136.917 0.732929C138.572 0.675106 139.962 1.97056 140.019 3.6264C139.962 1.97056 141.257 0.581356 142.913 0.523532C144.569 0.465709 145.958 1.76116 146.016 3.41701C145.958 1.76116 147.253 0.371959 148.909 0.314135ZM67.5432 14.1622C66.8808 14.1853 66.3624 14.7412 66.3856 15.4036C66.4002 15.8207 66.6266 16.1797 66.9572 16.3832C66.6411 16.6093 66.4408 16.9848 66.4554 17.4023C66.47 17.8194 66.6964 18.1785 67.027 18.382C66.7109 18.6081 66.5106 18.9836 66.5252 19.4011C66.5265 19.439 66.5292 19.4764 66.534 19.5132C66.3144 19.3275 66.0289 19.2182 65.7189 19.229C65.0565 19.2521 64.5382 19.808 64.5613 20.4703C64.5722 20.7804 64.7011 21.0575 64.9017 21.2636C64.8646 21.2615 64.8271 21.2613 64.7893 21.2626C64.1269 21.2858 63.6086 21.8417 63.6317 22.504C63.6426 22.814 63.7715 23.0912 63.9721 23.2973C63.935 23.2951 63.8975 23.295 63.8597 23.2963C63.4422 23.3109 63.0815 23.5369 62.8781 23.868C62.652 23.5524 62.278 23.3516 61.8609 23.3661C61.1986 23.3893 60.6802 23.9451 60.7033 24.6075C60.7266 25.2697 61.2824 25.7882 61.9447 25.765C62.362 25.7504 62.7208 25.5233 62.9243 25.1924C63.1504 25.5088 63.5258 25.7098 63.9435 25.6953C64.6056 25.672 65.1241 25.1161 65.101 24.4539C65.0902 24.1432 64.9609 23.8649 64.7596 23.6587C64.797 23.6609 64.8349 23.6629 64.8731 23.6616C65.5352 23.6383 66.0536 23.0824 66.0306 22.4202C66.0198 22.1095 65.8904 21.8313 65.6892 21.625C65.7266 21.6272 65.7645 21.6292 65.8026 21.6279C66.4648 21.6047 66.9832 21.0487 66.9602 20.3865C66.9589 20.3484 66.9542 20.3107 66.9494 20.2736C67.1692 20.4599 67.4558 20.5695 67.7665 20.5587C68.4287 20.5355 68.9471 19.9795 68.9241 19.3173C68.9095 18.8997 68.6827 18.5392 68.3514 18.3358C68.6673 18.1097 68.8688 17.7358 68.8543 17.3186C68.8397 16.9009 68.6129 16.5404 68.2816 16.337C68.5975 16.1109 68.799 15.7371 68.7845 15.3198C68.7614 14.6575 68.2054 14.1392 67.5432 14.1622ZM33.4592 12.3506C33.0417 12.3652 32.681 12.5912 32.4775 12.9223C32.2515 12.6067 31.8775 12.4059 31.4604 12.4204C31.0429 12.435 30.6822 12.661 30.4788 12.9921C30.2527 12.6765 29.8787 12.4757 29.4616 12.4902C28.7993 12.5133 28.2809 13.0692 28.304 13.7316C28.3149 14.0416 28.4438 14.3188 28.6444 14.5249C28.6074 14.5227 28.5698 14.5226 28.532 14.5239C27.8697 14.547 27.3513 15.1029 27.3744 15.7652C27.3891 16.1823 27.6154 16.5414 27.9461 16.7449C27.63 16.971 27.4297 17.3465 27.4442 17.764C27.4589 18.1811 27.6852 18.5402 28.0159 18.7437C27.6998 18.9698 27.4995 19.3453 27.514 19.7628C27.5287 20.1799 27.755 20.539 28.0857 20.7425C27.7696 20.9686 27.5693 21.3441 27.5838 21.7616C27.6071 22.4238 28.1629 22.9423 28.8252 22.9192C28.8631 22.9178 28.9003 22.9132 28.9372 22.9084C28.751 23.1282 28.6422 23.4149 28.653 23.7255C28.6763 24.3877 29.2321 24.9062 29.8944 24.8831C30.3116 24.8684 30.6705 24.6413 30.874 24.3104C31.1001 24.6268 31.4755 24.8278 31.8932 24.8133C32.3104 24.7986 32.6693 24.5715 32.8728 24.2406C33.0988 24.557 33.4743 24.758 33.8919 24.7435C34.5541 24.7202 35.0725 24.1643 35.0495 23.5021C35.0387 23.1914 34.9093 22.9132 34.7081 22.7069C34.7454 22.7091 34.7834 22.7111 34.8215 22.7098C35.4837 22.6865 36.0021 22.1306 35.9791 21.4684C35.956 20.8061 35.4 20.2878 34.7378 20.3108C34.0754 20.334 33.557 20.8899 33.5802 21.5522C33.5911 21.8622 33.72 22.1394 33.9206 22.3455C33.8835 22.3433 33.846 22.3432 33.8082 22.3445C33.3907 22.3591 33.03 22.5851 32.8265 22.9162C32.6004 22.6006 32.2265 22.3998 31.8094 22.4143C31.3919 22.4289 31.0312 22.6549 30.8278 22.986C30.6017 22.6704 30.2277 22.4696 29.8106 22.4841C29.7725 22.4855 29.7346 22.4882 29.6976 22.493C29.8834 22.2733 29.9935 21.988 29.9828 21.6778C29.9682 21.2602 29.7414 20.8997 29.4101 20.6962C29.7259 20.4702 29.9275 20.0963 29.913 19.679C29.8984 19.2614 29.6716 18.9009 29.3403 18.6974C29.6561 18.4714 29.8577 18.0975 29.8432 17.6803C29.8286 17.2626 29.6018 16.9021 29.2705 16.6987C29.5863 16.4726 29.7879 16.0988 29.7734 15.6815C29.7625 15.3708 29.6332 15.0925 29.4319 14.8863C29.4693 14.8884 29.5072 14.8905 29.5454 14.8891C29.9627 14.8745 30.3215 14.6474 30.525 14.3165C30.7511 14.6329 31.1265 14.8339 31.5442 14.8193C31.9614 14.8047 32.3203 14.5776 32.5238 14.2467C32.7498 14.5631 33.1253 14.7641 33.5429 14.7495C33.5808 14.7482 33.6181 14.7435 33.6549 14.7388C33.4687 14.9585 33.3599 15.2453 33.3708 15.5558C33.394 16.2181 33.9499 16.7366 34.6121 16.7134C35.2743 16.6902 35.7927 16.1343 35.7697 15.4721C35.7466 14.8098 35.1906 14.2915 34.5284 14.3145C34.4903 14.3158 34.4524 14.3186 34.4153 14.3233C34.6012 14.1037 34.7113 13.8184 34.7005 13.5082C34.6774 12.8459 34.1214 12.3276 33.4592 12.3506ZM42.5933 16.0341C42.1758 16.0487 41.8151 16.2747 41.6117 16.6058C41.3856 16.2902 41.0116 16.0894 40.5945 16.1039C40.177 16.1185 39.8164 16.3445 39.6129 16.6756C39.3868 16.36 39.0128 16.1592 38.5957 16.1737C37.9334 16.1968 37.415 16.7527 37.4381 17.415C37.4614 18.0773 38.0172 18.5957 38.6795 18.5726C39.0968 18.558 39.4556 18.3309 39.6591 18C39.8852 18.3163 40.2606 18.5174 40.6783 18.5028C41.0955 18.4882 41.4544 18.2611 41.6579 17.9302C41.7513 18.0608 41.8706 18.1709 42.0074 18.2551C41.6912 18.4812 41.4909 18.8567 41.5055 19.2742C41.5201 19.6913 41.7465 20.0504 42.0772 20.2539C41.761 20.48 41.5607 20.8555 41.5753 21.273C41.5899 21.6901 41.8163 22.0491 42.147 22.2527C42.0162 22.3462 41.9052 22.4652 41.8211 22.6021C41.595 22.2865 41.221 22.0857 40.8039 22.1002C40.3864 22.1148 40.0258 22.3408 39.8223 22.6719C39.5962 22.3563 39.2222 22.1555 38.8051 22.17C38.1428 22.1932 37.6244 22.749 37.6475 23.4114C37.6708 24.0736 38.2266 24.5921 38.8889 24.569C39.3062 24.5543 39.665 24.3272 39.8685 23.9963C40.0946 24.3127 40.47 24.5137 40.8877 24.4992C41.3049 24.4845 41.6638 24.2574 41.8673 23.9265C42.0934 24.2429 42.4688 24.4439 42.8865 24.4294C43.3037 24.4147 43.6626 24.1876 43.8661 23.8567C44.0921 24.1731 44.4676 24.3741 44.8852 24.3596C45.3025 24.3449 45.6614 24.1178 45.8649 23.7869C46.0909 24.1033 46.4663 24.3043 46.884 24.2898C47.5462 24.2665 48.0646 23.7106 48.0416 23.0484C48.0185 22.3861 47.4625 21.8678 46.8002 21.8908C46.3827 21.9054 46.0221 22.1314 45.8186 22.4625C45.5925 22.1469 45.2186 21.9461 44.8015 21.9606C44.384 21.9752 44.0233 22.2012 43.8198 22.5323C43.7263 22.4018 43.6082 22.2904 43.4713 22.2064C43.7872 21.9804 43.9887 21.6065 43.9742 21.1892C43.9596 20.7716 43.7329 20.4111 43.4015 20.2076C43.7174 19.9816 43.9189 19.6077 43.9044 19.1904C43.8898 18.7728 43.6631 18.4123 43.3317 18.2089C43.6476 17.9828 43.8491 17.6089 43.8346 17.1917C43.8115 16.5294 43.2555 16.0111 42.5933 16.0341ZM51.4482 11.7224C50.7859 11.7456 50.2675 12.3014 50.2906 12.9638C50.3053 13.3809 50.5316 13.7399 50.8623 13.9434C50.7316 14.0369 50.6205 14.156 50.5364 14.2929C50.3103 13.9773 49.9363 13.7765 49.5192 13.791C48.8569 13.8141 48.3385 14.37 48.3616 15.0324C48.3849 15.6946 48.9407 16.2131 49.603 16.1899C50.0203 16.1753 50.3791 15.9482 50.5826 15.6173C50.676 15.748 50.7953 15.8581 50.9321 15.9422C50.616 16.1683 50.4156 16.5438 50.4302 16.9613C50.4449 17.3784 50.6712 17.7375 51.0019 17.941C50.6858 18.1671 50.4854 18.5426 50.5 18.9601C50.5147 19.3772 50.741 19.7363 51.0717 19.9398C50.7556 20.1659 50.5552 20.5414 50.5698 20.9589C50.5931 21.6211 51.1489 22.1396 51.8112 22.1165C51.8491 22.1152 51.8863 22.1105 51.9232 22.1057C51.737 22.3255 51.6282 22.6122 51.639 22.9228C51.6622 23.585 52.2181 24.1035 52.8804 24.0804C53.2976 24.0657 53.6565 23.8386 53.86 23.5077C54.086 23.8241 54.4615 24.0251 54.8791 24.0106C55.2964 23.9959 55.6553 23.7688 55.8588 23.4379C56.0848 23.7543 56.4603 23.9554 56.8779 23.9408C57.5401 23.9175 58.0585 23.3616 58.0355 22.6994C58.0124 22.0371 57.4564 21.5188 56.7942 21.5418C56.3767 21.5564 56.016 21.7824 55.8125 22.1136C55.5864 21.7979 55.2125 21.5971 54.7954 21.6116C54.3779 21.6262 54.0172 21.8522 53.8137 22.1834C53.5877 21.8677 53.2137 21.6669 52.7966 21.6814C52.7585 21.6828 52.7206 21.6855 52.6835 21.6903C52.8694 21.4706 52.9795 21.1853 52.9687 20.8751C52.9542 20.4575 52.7274 20.097 52.3961 19.8935C52.7119 19.6675 52.9135 19.2936 52.8989 18.8763C52.8844 18.4587 52.6576 18.0982 52.3263 17.8948C52.6421 17.6687 52.8437 17.2948 52.8292 16.8776C52.8146 16.4599 52.5878 16.0994 52.2565 15.896C52.3869 15.8026 52.4974 15.6842 52.5814 15.5475C52.8075 15.8638 53.1829 16.0649 53.6006 16.0503C54.0178 16.0357 54.3767 15.8086 54.5802 15.4777C54.8062 15.794 55.1817 15.9951 55.5993 15.9805C56.0166 15.9659 56.3755 15.7388 56.579 15.4079C56.805 15.7242 57.1804 15.9253 57.5981 15.9107C58.2603 15.8875 58.7787 15.3316 58.7557 14.6694C58.7326 14.0071 58.1766 13.4888 57.5143 13.5118C57.0969 13.5264 56.7362 13.7524 56.5327 14.0835C56.3066 13.7679 55.9327 13.5671 55.5156 13.5816C55.0981 13.5962 54.7374 13.8222 54.5339 14.1533C54.3078 13.8377 53.9339 13.6369 53.5168 13.6514C53.0993 13.666 52.7386 13.892 52.5352 14.2231C52.4417 14.0926 52.3235 13.9812 52.1867 13.8972C52.5025 13.6711 52.7041 13.2973 52.6896 12.88C52.6664 12.2177 52.1105 11.6994 51.4482 11.7224ZM87.4263 10.466C87.0088 10.4806 86.6481 10.7067 86.4447 11.0378C86.2186 10.7221 85.8446 10.5213 85.4275 10.5358C85.01 10.5504 84.6493 10.7765 84.4459 11.1076C84.2198 10.7919 83.8458 10.5911 83.4287 10.6056C82.7664 10.6288 82.248 11.1847 82.2711 11.847C82.282 12.157 82.4109 12.4342 82.6115 12.6403C82.5745 12.6381 82.537 12.638 82.4991 12.6393C81.8368 12.6625 81.3184 13.2183 81.3415 13.8807C81.3562 14.2978 81.5825 14.6568 81.9132 14.8603C81.5971 15.0864 81.3968 15.462 81.4113 15.8795C81.426 16.2966 81.6523 16.6556 81.983 16.8591C81.6669 17.0852 81.4666 17.4607 81.4811 17.8782C81.4958 18.2953 81.7221 18.6544 82.0528 18.8579C81.7367 19.084 81.5364 19.4595 81.5509 19.877C81.5742 20.5393 82.13 21.0577 82.7923 21.0346C82.8302 21.0333 82.8674 21.0286 82.9043 21.0238C82.7181 21.2436 82.6093 21.5304 82.6201 21.8409C82.6434 22.5031 83.1992 23.0216 83.8615 22.9985C84.2788 22.9838 84.6376 22.7567 84.8411 22.4259C85.0672 22.7422 85.4426 22.9433 85.8603 22.9287C86.2775 22.914 86.6364 22.6869 86.8399 22.3561C87.0659 22.6724 87.4414 22.8735 87.859 22.8589C88.5212 22.8357 89.0396 22.2797 89.0166 21.6175C89.0058 21.3068 88.8764 21.0286 88.6752 20.8223C88.7125 20.8245 88.7505 20.8265 88.7886 20.8252C89.4508 20.802 89.9692 20.246 89.9462 19.5838C89.9316 19.1662 89.7048 18.8057 89.3735 18.6023C89.6894 18.3762 89.8909 18.0023 89.8764 17.5851C89.8533 16.9228 89.2973 16.4045 88.6351 16.4275C88.2176 16.4421 87.8569 16.6681 87.6534 16.9992C87.4273 16.6836 87.0534 16.4828 86.6363 16.4973C85.9739 16.5204 85.4556 17.0763 85.4787 17.7386C85.5019 18.4009 86.0578 18.9193 86.7201 18.8962C87.1373 18.8816 87.4962 18.6545 87.6997 18.3236C87.7931 18.4543 87.9124 18.5643 88.0491 18.6485C87.733 18.8746 87.5327 19.2501 87.5473 19.6676C87.5582 19.9777 87.6871 20.2548 87.8877 20.4609C87.8506 20.4588 87.8131 20.4586 87.7753 20.46C87.3578 20.4745 86.9971 20.7006 86.7936 21.0317C86.5676 20.716 86.1936 20.5153 85.7765 20.5298C85.359 20.5443 84.9983 20.7704 84.7949 21.1015C84.5688 20.7858 84.1948 20.5851 83.7777 20.5996C83.7396 20.6009 83.7017 20.6036 83.6647 20.6084C83.8505 20.3887 83.9606 20.1034 83.9499 19.7932C83.9353 19.3756 83.7085 19.0151 83.3772 18.8117C83.6931 18.5856 83.8946 18.2117 83.8801 17.7945C83.8655 17.3768 83.6387 17.0163 83.3074 16.8129C83.6233 16.5868 83.8248 16.213 83.8103 15.7957C83.7957 15.378 83.5689 15.0175 83.2376 14.8141C83.5535 14.588 83.755 14.2142 83.7405 13.7969C83.7296 13.4862 83.6003 13.208 83.399 13.0017C83.4364 13.0039 83.4743 13.0059 83.5125 13.0046C83.9298 12.9899 84.2886 12.7628 84.4921 12.4319C84.7182 12.7483 85.0936 12.9494 85.5113 12.9348C85.9285 12.9201 86.2874 12.693 86.4909 12.3621C86.7169 12.6785 87.0924 12.8796 87.51 12.865C87.5479 12.8636 87.5852 12.859 87.622 12.8542C87.4358 13.074 87.327 13.3607 87.3379 13.6713C87.3611 14.3335 87.917 14.852 88.5792 14.8289C89.2414 14.8056 89.7598 14.2497 89.7368 13.5875C89.7137 12.9252 89.1577 12.4069 88.4955 12.4299C88.4574 12.4313 88.4195 12.434 88.3824 12.4388C88.5683 12.2191 88.6784 11.9338 88.6676 11.6236C88.6445 10.9613 88.0885 10.443 87.4263 10.466ZM93.4924 12.2554C92.8301 12.2786 92.3117 12.8344 92.3348 13.4968C92.3495 13.9139 92.5758 14.2729 92.9065 14.4764C92.5904 14.7025 92.3901 15.0781 92.4046 15.4956C92.4193 15.9127 92.6456 16.2717 92.9763 16.4752C92.6602 16.7013 92.4599 17.0768 92.4744 17.4943C92.4891 17.9114 92.7154 18.2705 93.0461 18.474C92.73 18.7001 92.5297 19.0756 92.5442 19.4931C92.5675 20.1554 93.1233 20.6738 93.7856 20.6507C93.8235 20.6494 93.8607 20.6447 93.8976 20.64C93.7114 20.8597 93.6026 21.1465 93.6134 21.457C93.6367 22.1193 94.1925 22.6377 94.8548 22.6146C95.2721 22.5999 95.6309 22.3728 95.8344 22.042C96.0605 22.3583 96.4359 22.5594 96.8536 22.5448C97.5157 22.5216 98.0342 21.9656 98.0111 21.3034C97.988 20.6412 97.432 20.1228 96.7698 20.1459C96.3523 20.1604 95.9916 20.3865 95.7882 20.7176C95.5621 20.4019 95.1881 20.2012 94.771 20.2157C94.7329 20.217 94.695 20.2197 94.658 20.2245C94.8438 20.0049 94.9539 19.7195 94.9432 19.4094C94.9286 18.9917 94.7018 18.6312 94.3705 18.4278C94.6864 18.2017 94.8879 17.8279 94.8734 17.4106C94.8588 16.9929 94.632 16.6324 94.3007 16.429C94.6166 16.2029 94.8181 15.8291 94.8036 15.4118C94.789 14.9941 94.5622 14.6336 94.2309 14.4302C94.5468 14.2041 94.7483 13.8303 94.7338 13.413C94.7106 12.7507 94.1547 12.2324 93.4924 12.2554ZM100.488 12.0111C99.8258 12.0343 99.3074 12.5901 99.3306 13.2525C99.3452 13.6696 99.5716 14.0286 99.9022 14.2322C99.5861 14.4582 99.3858 14.8338 99.4004 15.2513C99.415 15.6684 99.6414 16.0274 99.972 16.2309C99.6559 16.457 99.4556 16.8326 99.4702 17.25C99.4848 17.6671 99.7112 18.0262 100.042 18.2297C99.9111 18.3232 99.8001 18.4423 99.7159 18.5792C99.4898 18.2635 99.1159 18.0628 98.6988 18.0773C98.0364 18.1004 97.5181 18.6563 97.5412 19.3186C97.5644 19.9809 98.1203 20.4993 98.7825 20.4762C99.1998 20.4616 99.5587 20.2345 99.7622 19.9036C99.8555 20.0342 99.9749 20.1443 100.112 20.2285C99.7955 20.4546 99.5952 20.8301 99.6098 21.2476C99.633 21.9099 100.189 22.4283 100.851 22.4052C101.513 22.382 102.032 21.826 102.009 21.1638C101.994 20.7462 101.767 20.3857 101.436 20.1822C101.752 19.9562 101.953 19.5823 101.939 19.1651C101.924 18.7474 101.698 18.3869 101.366 18.1835C101.682 17.9574 101.884 17.5836 101.869 17.1663C101.855 16.7486 101.628 16.3881 101.296 16.1847C101.612 15.9586 101.814 15.5848 101.799 15.1675C101.785 14.7498 101.558 14.3893 101.227 14.1859C101.542 13.9598 101.744 13.586 101.73 13.1687C101.706 12.5064 101.15 11.9881 100.488 12.0111ZM107.554 13.7656C107.136 13.7802 106.776 14.0062 106.572 14.3373C106.346 14.0217 105.972 13.8209 105.555 13.8354C105.137 13.85 104.777 14.076 104.573 14.4071C104.347 14.0915 103.973 13.8907 103.556 13.9052C102.894 13.9283 102.375 14.4842 102.399 15.1466C102.422 15.8088 102.978 16.3273 103.64 16.3041C104.057 16.2895 104.416 16.0624 104.62 15.7315C104.846 16.0479 105.221 16.2489 105.639 16.2343C106.056 16.2197 106.415 15.9926 106.618 15.6617C106.712 15.7924 106.831 15.9025 106.968 15.9866C106.652 16.2127 106.451 16.5883 106.466 17.0057C106.481 17.4229 106.707 17.7819 107.038 17.9854C106.721 18.2115 106.521 18.587 106.536 19.0045C106.55 19.4216 106.777 19.7807 107.107 19.9842C106.977 20.0777 106.866 20.1968 106.781 20.3337C106.555 20.018 106.181 19.8173 105.764 19.8318C105.347 19.8463 104.986 20.0724 104.783 20.4035C104.557 20.0878 104.183 19.8871 103.766 19.9016C103.103 19.9247 102.585 20.4806 102.608 21.1429C102.631 21.8052 103.187 22.3236 103.849 22.3005C104.267 22.2858 104.625 22.0587 104.829 21.7279C105.055 22.0442 105.43 22.2453 105.848 22.2307C106.265 22.2161 106.624 21.9889 106.828 21.6581C107.054 21.9744 107.429 22.1755 107.847 22.1609C108.264 22.1463 108.623 21.9191 108.826 21.5883C109.053 21.9046 109.428 22.1057 109.846 22.0911C110.263 22.0765 110.622 21.8493 110.825 21.5185C111.051 21.8348 111.427 22.0359 111.844 22.0213C112.507 21.9981 113.025 21.4421 113.002 20.7799C112.979 20.1177 112.423 19.5993 111.761 19.6224C111.343 19.6369 110.983 19.863 110.779 20.1941C110.553 19.8784 110.179 19.6777 109.762 19.6922C109.344 19.7067 108.984 19.9328 108.78 20.2639C108.687 20.1333 108.569 20.022 108.432 19.938C108.748 19.7119 108.949 19.338 108.935 18.9208C108.92 18.5031 108.693 18.1426 108.362 17.9392C108.678 17.7131 108.879 17.3393 108.865 16.922C108.85 16.5043 108.623 16.1438 108.292 15.9404C108.608 15.7143 108.81 15.3405 108.795 14.9232C108.772 14.2609 108.216 13.7426 107.554 13.7656ZM121.406 9.27946C120.743 9.30259 120.225 9.85847 120.248 10.5208C120.263 10.9379 120.489 11.297 120.82 11.5005C120.689 11.594 120.578 11.713 120.494 11.85C120.268 11.5343 119.894 11.3335 119.477 11.348C119.059 11.3626 118.698 11.5887 118.495 11.9198C118.269 11.6041 117.895 11.4033 117.478 11.4178C117.06 11.4324 116.7 11.6585 116.496 11.9896C116.27 11.6739 115.896 11.4731 115.479 11.4876C114.817 11.5108 114.298 12.0667 114.321 12.729C114.332 13.039 114.461 13.3162 114.662 13.5223C114.625 13.5201 114.587 13.52 114.549 13.5213C113.887 13.5445 113.369 14.1003 113.392 14.7627C113.406 15.1798 113.633 15.5388 113.963 15.7423C113.647 15.9684 113.447 16.344 113.462 16.7615C113.476 17.1786 113.703 17.5376 114.033 17.7411C113.717 17.9672 113.517 18.3427 113.531 18.7602C113.555 19.4225 114.111 19.9409 114.773 19.9178C114.811 19.9165 114.848 19.9118 114.885 19.9071C114.699 20.1268 114.59 20.4136 114.601 20.7241C114.624 21.3864 115.18 21.9048 115.842 21.8817C116.259 21.8671 116.618 21.6399 116.822 21.3091C117.048 21.6254 117.423 21.8265 117.841 21.8119C118.503 21.7887 119.021 21.2327 118.998 20.5705C118.975 19.9083 118.419 19.3899 117.757 19.413C117.339 19.4275 116.979 19.6536 116.775 19.9847C116.549 19.669 116.175 19.4683 115.758 19.4828C115.72 19.4841 115.682 19.4868 115.645 19.4916C115.831 19.272 115.941 18.9867 115.93 18.6765C115.916 18.2588 115.689 17.8983 115.358 17.6949C115.674 17.4688 115.875 17.095 115.861 16.6777C115.846 16.26 115.619 15.8995 115.288 15.6961C115.604 15.47 115.805 15.0962 115.791 14.6789C115.78 14.3682 115.651 14.0899 115.449 13.8837C115.487 13.8859 115.525 13.8879 115.563 13.8866C115.98 13.8719 116.339 13.6448 116.542 13.3139C116.768 13.6303 117.144 13.8314 117.562 13.8168C117.979 13.8021 118.338 13.575 118.541 13.2441C118.767 13.5605 119.143 13.7616 119.56 13.747C119.978 13.7323 120.337 13.5052 120.54 13.1743C120.633 13.305 120.753 13.4151 120.889 13.4993C120.573 13.7253 120.373 14.1009 120.388 14.5184C120.402 14.9355 120.629 15.2945 120.959 15.498C120.643 15.7241 120.443 16.0997 120.457 16.5172C120.472 16.9343 120.698 17.2933 121.029 17.4968C120.898 17.5903 120.787 17.7094 120.703 17.8463C120.477 17.5307 120.103 17.3299 119.686 17.3444C119.024 17.3675 118.505 17.9234 118.528 18.5857C118.552 19.248 119.107 19.7664 119.77 19.7433C120.187 19.7287 120.546 19.5016 120.749 19.1707C120.843 19.3014 120.962 19.4114 121.099 19.4956C120.783 19.7217 120.582 20.0972 120.597 20.5147C120.62 21.177 121.176 21.6954 121.838 21.6723C122.501 21.6491 123.019 21.0931 122.996 20.4309C122.981 20.0133 122.755 19.6528 122.423 19.4494C122.739 19.2233 122.941 18.8494 122.926 18.4322C122.912 18.0145 122.685 17.654 122.353 17.4506C122.669 17.2245 122.871 16.8507 122.856 16.4334C122.842 16.0157 122.615 15.6552 122.284 15.4518C122.599 15.2257 122.801 14.8519 122.787 14.4346C122.772 14.0169 122.545 13.6564 122.214 13.453C122.53 13.2269 122.731 12.8531 122.717 12.4358C122.702 12.0182 122.475 11.6577 122.144 11.4542C122.46 11.2282 122.661 10.8543 122.647 10.437C122.624 9.77477 122.068 9.25644 121.406 9.27946ZM130.47 10.9641C130.052 10.9787 129.692 11.2048 129.488 11.5359C129.262 11.2202 128.888 11.0194 128.471 11.0339C128.054 11.0485 127.693 11.2746 127.489 11.6057C127.263 11.29 126.889 11.0892 126.472 11.1037C125.81 11.1269 125.292 11.6828 125.315 12.3451C125.326 12.6551 125.455 12.9323 125.655 13.1384C125.618 13.1362 125.581 13.1361 125.543 13.1374C124.88 13.1606 124.362 13.7164 124.385 14.3788C124.4 14.7959 124.626 15.1549 124.957 15.3584C124.641 15.5845 124.44 15.9601 124.455 16.3776C124.47 16.7947 124.696 17.1537 125.027 17.3572C124.71 17.5833 124.51 17.9588 124.525 18.3763C124.548 19.0386 125.104 19.557 125.766 19.5339C125.804 19.5326 125.841 19.5279 125.878 19.5232C125.692 19.7429 125.583 20.0297 125.594 20.3402C125.617 21.0025 126.173 21.5209 126.835 21.4978C127.253 21.4832 127.611 21.2561 127.815 20.9252C128.041 21.2415 128.416 21.4426 128.834 21.428C129.251 21.4134 129.61 21.1863 129.814 20.8554C130.04 21.1717 130.415 21.3728 130.833 21.3582C131.25 21.3436 131.609 21.1165 131.812 20.7856C132.039 21.1019 132.414 21.303 132.832 21.2884C133.494 21.2652 134.012 20.7092 133.989 20.0471C133.966 19.3848 133.41 18.8665 132.748 18.8895C132.33 18.9041 131.97 19.1301 131.766 19.4612C131.54 19.1455 131.166 18.9448 130.749 18.9593C130.332 18.9739 129.971 19.1999 129.767 19.531C129.541 19.2153 129.167 19.0146 128.75 19.0291C128.333 19.0437 127.972 19.2697 127.769 19.6008C127.543 19.2851 127.169 19.0844 126.752 19.0989C126.713 19.1002 126.676 19.1029 126.638 19.1077C126.824 18.8881 126.934 18.6028 126.924 18.2926C126.909 17.8749 126.682 17.5144 126.351 17.311C126.481 17.2176 126.592 17.0992 126.676 16.9625C126.902 17.2788 127.277 17.4799 127.695 17.4653C128.112 17.4507 128.471 17.2236 128.675 16.8927C128.901 17.209 129.276 17.4101 129.694 17.3955C130.111 17.3809 130.47 17.1538 130.673 16.8229C130.9 17.1392 131.275 17.3403 131.693 17.3257C132.355 17.3025 132.873 16.7466 132.85 16.0844C132.836 15.6667 132.609 15.3062 132.278 15.1028C132.593 14.8767 132.795 14.5029 132.78 14.0856C132.757 13.4233 132.201 12.905 131.539 12.928C131.501 12.9294 131.463 12.9321 131.426 12.9369C131.612 12.7172 131.722 12.4319 131.711 12.1217C131.688 11.4595 131.132 10.9411 130.47 10.9641ZM142.463 10.5454C142.045 10.5599 141.684 10.786 141.481 11.1171C141.255 10.8014 140.881 10.6007 140.464 10.6152C140.046 10.6297 139.686 10.8558 139.482 11.1869C139.256 10.8712 138.882 10.6705 138.465 10.685C138.048 10.6995 137.687 10.9256 137.483 11.2567C137.257 10.941 136.883 10.7403 136.466 10.7548C135.804 10.7779 135.286 11.3338 135.309 11.9961C135.32 12.3062 135.448 12.5833 135.649 12.7894C135.612 12.7872 135.574 12.7871 135.537 12.7884C134.874 12.8116 134.356 13.3674 134.379 14.0298C134.402 14.692 134.958 15.2105 135.62 15.1874C135.658 15.186 135.696 15.1813 135.732 15.1766C135.546 15.3964 135.437 15.6831 135.448 15.9937C135.471 16.6559 136.027 17.1744 136.69 17.1512C137.107 17.1366 137.466 16.9095 137.669 16.5786C137.895 16.895 138.271 17.096 138.688 17.0814C139.106 17.0668 139.465 16.8397 139.668 16.5088C139.894 16.8252 140.269 17.0262 140.687 17.0116C141.104 16.997 141.463 16.7699 141.667 16.439C141.893 16.7554 142.268 16.9564 142.686 16.9418C142.724 16.9405 142.761 16.9358 142.798 16.9311C142.612 17.1508 142.503 17.4376 142.514 17.7481C142.525 18.0582 142.654 18.3353 142.854 18.5414C142.817 18.5393 142.78 18.5392 142.742 18.5405C142.324 18.5551 141.964 18.7811 141.76 19.1122C141.534 18.7965 141.16 18.5958 140.743 18.6103C140.325 18.6249 139.965 18.8509 139.761 19.182C139.535 18.8663 139.161 18.6656 138.744 18.6801C138.327 18.6947 137.966 18.9207 137.763 19.2518C137.536 18.9361 137.163 18.7354 136.745 18.7499C136.083 18.773 135.565 19.3289 135.588 19.9912C135.611 20.6535 136.167 21.1719 136.829 21.1488C137.246 21.1342 137.605 20.9071 137.809 20.5762C138.035 20.8925 138.41 21.0936 138.828 21.079C139.245 21.0644 139.604 20.8373 139.808 20.5064C140.034 20.8227 140.409 21.0238 140.827 21.0092C141.244 20.9946 141.603 20.7675 141.806 20.4366C142.032 20.7529 142.408 20.954 142.826 20.9394C143.488 20.9162 144.006 20.3602 143.983 19.6981C143.972 19.3874 143.843 19.1091 143.642 18.9028C143.679 18.905 143.717 18.9071 143.755 18.9057C144.417 18.8825 144.936 18.3266 144.913 17.6644C144.89 17.0021 144.334 16.4838 143.671 16.5068C143.633 16.5081 143.595 16.5109 143.558 16.5156C143.744 16.296 143.854 16.0107 143.844 15.7005C143.82 15.0382 143.264 14.5199 142.602 14.5429C142.185 14.5575 141.824 14.7835 141.621 15.1146C141.394 14.799 141.02 14.5982 140.603 14.6127C140.186 14.6273 139.825 14.8533 139.622 15.1844C139.396 14.8688 139.022 14.668 138.605 14.6825C138.187 14.6971 137.826 14.9231 137.623 15.2542C137.397 14.9386 137.023 14.7378 136.606 14.7523C136.568 14.7536 136.53 14.7564 136.493 14.7611C136.679 14.5415 136.789 14.2562 136.778 13.946C136.767 13.6353 136.638 13.3571 136.437 13.1508C136.474 13.153 136.512 13.155 136.55 13.1537C136.967 13.139 137.326 12.9119 137.53 12.5811C137.756 12.8974 138.131 13.0985 138.549 13.0839C138.966 13.0692 139.325 12.8421 139.528 12.5113C139.754 12.8276 140.13 13.0287 140.548 13.0141C140.965 12.9994 141.324 12.7723 141.527 12.4415C141.753 12.7578 142.129 12.9589 142.546 12.9443C143.209 12.9211 143.727 12.3651 143.704 11.7029C143.681 11.0407 143.125 10.5223 142.463 10.5454ZM60.5474 14.4065C59.8851 14.4296 59.3667 14.9855 59.3898 15.6479C59.4045 16.065 59.6308 16.424 59.9615 16.6275C59.6454 16.8536 59.4451 17.2291 59.4596 17.6466C59.4743 18.0637 59.7006 18.4228 60.0313 18.6263C59.7152 18.8524 59.5149 19.2279 59.5294 19.6454C59.5527 20.3077 60.1085 20.8261 60.7708 20.803C61.081 20.7921 61.3579 20.6624 61.564 20.4616C61.5619 20.4989 61.5618 20.5369 61.5631 20.575C61.5864 21.2373 62.1422 21.7557 62.8045 21.7326C63.4666 21.7094 63.9851 21.1534 63.962 20.4912C63.9389 19.829 63.3829 19.3106 62.7207 19.3337C62.4102 19.3445 62.1317 19.473 61.9255 19.6741C61.9276 19.637 61.9297 19.5995 61.9284 19.5616C61.9138 19.144 61.687 18.7835 61.3557 18.5801C61.6716 18.354 61.8731 17.9801 61.8586 17.5629C61.844 17.1452 61.6172 16.7847 61.2859 16.5813C61.6018 16.3552 61.8033 15.9814 61.7888 15.5641C61.7656 14.9018 61.2097 14.3835 60.5474 14.4065ZM129.535 12.8603C129.761 13.1766 130.136 13.3777 130.554 13.3631C130.592 13.3617 130.629 13.3571 130.666 13.3523C130.479 13.5721 130.371 13.8588 130.381 14.1694C130.396 14.5865 130.622 14.9455 130.953 15.1491C130.822 15.2425 130.711 15.3616 130.627 15.4985C130.401 15.1829 130.027 14.9821 129.61 14.9966C129.193 15.0112 128.832 15.2372 128.628 15.5683C128.402 15.2527 128.028 15.0519 127.611 15.0664C127.194 15.081 126.833 15.307 126.63 15.6381C126.536 15.5076 126.418 15.3962 126.281 15.3122C126.597 15.0861 126.799 14.7123 126.784 14.295C126.773 13.9843 126.644 13.7061 126.443 13.4998C126.48 13.502 126.518 13.504 126.556 13.5027C126.973 13.488 127.332 13.2609 127.536 12.9301C127.762 13.2464 128.137 13.4475 128.555 13.4329C128.972 13.4182 129.331 13.1911 129.535 12.8603ZM42.4537 12.0365C41.7913 12.0597 41.273 12.6155 41.2961 13.2779C41.3193 13.9401 41.8752 14.4586 42.5375 14.4354C43.1996 14.4122 43.7181 13.8563 43.695 13.1941C43.6719 12.5318 43.1159 12.0135 42.4537 12.0365ZM107.414 9.76805C106.752 9.79118 106.233 10.3471 106.257 11.0094C106.28 11.6716 106.836 12.1901 107.498 12.167C108.16 12.1438 108.678 11.5878 108.655 10.9256C108.632 10.2634 108.076 9.74504 107.414 9.76805Z" fill="#85586F"/>
</svg>
