<svg width="12" height="180" viewBox="0 0 12 180" fill="none" xmlns="http://www.w3.org/2000/svg">
<circle cx="3" cy="3" r="3" fill="#85586F"/>
<circle cx="3" cy="33" r="3" fill="#85586F"/>
<circle cx="3" cy="63" r="3" fill="#85586F"/>
<circle cx="3" cy="93" r="3" fill="#85586F"/>
<circle cx="3" cy="123" r="3" fill="#85586F"/>
<circle cx="3" cy="153" r="3" fill="#85586F"/>
<circle cx="3" cy="9" r="3" fill="#85586F"/>
<circle cx="3" cy="39" r="3" fill="#85586F"/>
<circle cx="3" cy="69" r="3" fill="#85586F"/>
<circle cx="3" cy="99" r="3" fill="#85586F"/>
<circle cx="3" cy="129" r="3" fill="#85586F"/>
<circle cx="3" cy="159" r="3" fill="#85586F"/>
<circle cx="3" cy="15" r="3" fill="#85586F"/>
<circle cx="3" cy="45" r="3" fill="#85586F"/>
<circle cx="3" cy="75" r="3" fill="#85586F"/>
<circle cx="3" cy="105" r="3" fill="#85586F"/>
<circle cx="3" cy="135" r="3" fill="#85586F"/>
<circle cx="3" cy="165" r="3" fill="#85586F"/>
<circle cx="3" cy="21" r="3" fill="#85586F"/>
<circle cx="3" cy="51" r="3" fill="#85586F"/>
<circle cx="3" cy="81" r="3" fill="#85586F"/>
<circle cx="3" cy="111" r="3" fill="#85586F"/>
<circle cx="3" cy="141" r="3" fill="#85586F"/>
<circle cx="3" cy="27" r="3" fill="#85586F"/>
<circle cx="3" cy="57" r="3" fill="#85586F"/>
<circle cx="3" cy="87" r="3" fill="#85586F"/>
<circle cx="3" cy="117" r="3" fill="#85586F"/>
<circle cx="3" cy="147" r="3" fill="#85586F"/>
<circle cx="9" cy="3" r="3" fill="#85586F"/>
<circle cx="9" cy="33" r="3" fill="#85586F"/>
<circle cx="9" cy="63" r="3" fill="#85586F"/>
<circle cx="9" cy="93" r="3" fill="#85586F"/>
<circle cx="9" cy="123" r="3" fill="#85586F"/>
<circle cx="9" cy="153" r="3" fill="#85586F"/>
<circle cx="9" cy="9" r="3" fill="#85586F"/>
<circle cx="9" cy="39" r="3" fill="#85586F"/>
<circle cx="9" cy="69" r="3" fill="#85586F"/>
<circle cx="9" cy="99" r="3" fill="#85586F"/>
<circle cx="9" cy="129" r="3" fill="#85586F"/>
<circle cx="9" cy="159" r="3" fill="#85586F"/>
<circle cx="9" cy="15" r="3" fill="#85586F"/>
<circle cx="9" cy="45" r="3" fill="#85586F"/>
<circle cx="9" cy="75" r="3" fill="#85586F"/>
<circle cx="9" cy="105" r="3" fill="#85586F"/>
<circle cx="9" cy="135" r="3" fill="#85586F"/>
<circle cx="9" cy="165" r="3" fill="#85586F"/>
<circle cx="9" cy="21" r="3" fill="#85586F"/>
<circle cx="9" cy="51" r="3" fill="#85586F"/>
<circle cx="9" cy="81" r="3" fill="#85586F"/>
<circle cx="9" cy="111" r="3" fill="#85586F"/>
<circle cx="9" cy="141" r="3" fill="#85586F"/>
<circle cx="9" cy="27" r="3" fill="#85586F"/>
<circle cx="9" cy="57" r="3" fill="#85586F"/>
<circle cx="9" cy="87" r="3" fill="#85586F"/>
<circle cx="9" cy="117" r="3" fill="#85586F"/>
<circle cx="9" cy="147" r="3" fill="#85586F"/>
<circle cx="3" cy="171" r="3" fill="#85586F"/>
<circle cx="3" cy="177" r="3" fill="#85586F"/>
<circle cx="9" cy="171" r="3" fill="#85586F"/>
<circle cx="9" cy="177" r="3" fill="#85586F"/>
</svg>
