<svg preserveAspectRatio="none" overflow="visible" style="display: block;" width="360" height="180" viewBox="0 0 360 180" fill="none" xmlns="http://www.w3.org/2000/svg">
<g id="art-frame-United States &#226;&#128;&#148; Statue of Liberty" clip-path="url(#clip0_0_18579)">
<circle id="Ellipse 81" cx="124" cy="10" r="3" fill="#F0DBDB"/>
<circle id="Ellipse 82" cx="130" cy="10" r="3" fill="#F0DBDB"/>
<circle id="Ellipse 83" cx="136" cy="10" r="3" fill="#BA97A3"/>
<circle id="Ellipse 140" cx="118" cy="16" r="3" fill="#BA97A3"/>
<circle id="Ellipse 141" cx="124" cy="16" r="3" fill="#BA97A3"/>
<circle id="Ellipse 142" cx="130" cy="16" r="3" fill="#BA97A3"/>
<circle id="Ellipse 200" cx="118" cy="22" r="3" fill="#BA97A3"/>
<circle id="Ellipse 201" cx="124" cy="22" r="3" fill="#BA97A3"/>
<circle id="Ellipse 202" cx="130" cy="22" r="3" fill="#BA97A3"/>
<circle id="Ellipse 203" cx="136" cy="22" r="3" fill="#BA97A3"/>
<circle id="Ellipse 259" cx="112" cy="28" r="3" fill="#85586F"/>
<circle id="Ellipse 260" cx="118" cy="28" r="3" fill="#85586F"/>
<circle id="Ellipse 261" cx="124" cy="28" r="3" fill="#85586F"/>
<circle id="Ellipse 262" cx="130" cy="28" r="3" fill="#85586F"/>
<circle id="Ellipse 263" cx="136" cy="28" r="3" fill="#85586F"/>
<circle id="Ellipse 319" cx="112" cy="34" r="3" fill="#85586F"/>
<circle id="Ellipse 320" cx="118" cy="34" r="3" fill="#85586F"/>
<circle id="Ellipse 321" cx="124" cy="34" r="3" fill="#BA97A3"/>
<circle id="Ellipse 322" cx="130" cy="34" r="3" fill="#85586F"/>
<circle id="Ellipse 323" cx="136" cy="34" r="3" fill="#85586F"/>
<circle id="Ellipse 380" cx="118" cy="40" r="3" fill="#BA97A3"/>
<circle id="Ellipse 381" cx="124" cy="40" r="3" fill="#BA97A3"/>
<circle id="Ellipse 382" cx="130" cy="40" r="3" fill="#BA97A3"/>
<circle id="Ellipse 440" cx="118" cy="46" r="3" fill="#BA97A3"/>
<circle id="Ellipse 441" cx="124" cy="46" r="3" fill="#BA97A3"/>
<circle id="Ellipse 442" cx="130" cy="46" r="3" fill="#BA97A3"/>
<circle id="Ellipse 501" cx="124" cy="52" r="3" fill="#BA97A3"/>
<circle id="Ellipse 502" cx="130" cy="52" r="3" fill="#85586F"/>
<circle id="Ellipse 503" cx="136" cy="52" r="3" fill="#85586F"/>
<circle id="Ellipse 509" cx="172" cy="52" r="3" fill="#85586F"/>
<circle id="Ellipse 512" cx="190" cy="52" r="3" fill="#85586F"/>
<circle id="Ellipse 515" cx="208" cy="52" r="3" fill="#85586F"/>
<circle id="Ellipse 1785" cx="205" cy="59" r="3" fill="#85586F"/>
<circle id="Ellipse 561" cx="124" cy="58" r="3" fill="#BA97A3"/>
<circle id="Ellipse 562" cx="130" cy="58" r="3" fill="#85586F"/>
<circle id="Ellipse 563" cx="136" cy="58" r="3" fill="#BA97A3"/>
<circle id="Ellipse 570" cx="178" cy="58" r="3" fill="#85586F"/>
<circle id="Ellipse 572" cx="190" cy="58" r="3" fill="#85586F"/>
<circle id="Ellipse 622" cx="130" cy="64" r="3" fill="#BA97A3"/>
<circle id="Ellipse 623" cx="136" cy="64" r="3" fill="#BA97A3"/>
<circle id="Ellipse 624" cx="142" cy="64" r="3" fill="#85586F"/>
<circle id="Ellipse 630" cx="178" cy="64" r="3" fill="#BA97A3"/>
<circle id="Ellipse 631" cx="184" cy="64" r="3" fill="#BA97A3"/>
<circle id="Ellipse 632" cx="190" cy="64" r="3" fill="#BA97A3"/>
<circle id="Ellipse 633" cx="196" cy="64" r="3" fill="#BA97A3"/>
<circle id="Ellipse 634" cx="202" cy="64" r="3" fill="#BA97A3"/>
<circle id="Ellipse 637" cx="220" cy="64" r="3" fill="#85586F"/>
<circle id="Ellipse 682" cx="130" cy="70" r="3" fill="#F0DBDB"/>
<circle id="Ellipse 683" cx="136" cy="70" r="3" fill="#F0DBDB"/>
<circle id="Ellipse 684" cx="142" cy="70" r="3" fill="#85586F"/>
<circle id="Ellipse 688" cx="166" cy="70" r="3" fill="#85586F"/>
<circle id="Ellipse 689" cx="172" cy="70" r="3" fill="#85586F"/>
<circle id="Ellipse 690" cx="178" cy="70" r="3" fill="#BA97A3"/>
<circle id="Ellipse 691" cx="184" cy="70" r="3" fill="#BA97A3"/>
<circle id="Ellipse 692" cx="190" cy="70" r="3" fill="#BA97A3"/>
<circle id="Ellipse 693" cx="196" cy="70" r="3" fill="#BA97A3"/>
<circle id="Ellipse 694" cx="202" cy="70" r="3" fill="#BA97A3"/>
<circle id="Ellipse 695" cx="208" cy="70" r="3" fill="#BA97A3"/>
<circle id="Ellipse 696" cx="214" cy="70" r="3" fill="#85586F"/>
<circle id="Ellipse 711" cx="304" cy="70" r="3" fill="#85586F"/>
<circle id="Ellipse 742" cx="130" cy="76" r="3" fill="#F0DBDB"/>
<circle id="Ellipse 743" cx="136" cy="76" r="3" fill="#F0DBDB"/>
<circle id="Ellipse 744" cx="142" cy="76" r="3" fill="#BA97A3"/>
<circle id="Ellipse 745" cx="148" cy="76" r="3" fill="#85586F"/>
<circle id="Ellipse 749" cx="172" cy="76" r="3" fill="#BA97A3"/>
<circle id="Ellipse 750" cx="178" cy="76" r="3" fill="#BA97A3"/>
<circle id="Ellipse 751" cx="184" cy="76" r="3" fill="#BA97A3"/>
<circle id="Ellipse 752" cx="190" cy="76" r="3" fill="#BA97A3"/>
<circle id="Ellipse 753" cx="196" cy="76" r="3" fill="#BA97A3"/>
<circle id="Ellipse 754" cx="202" cy="76" r="3" fill="#BA97A3"/>
<circle id="Ellipse 755" cx="208" cy="76" r="3" fill="#85586F"/>
<circle id="Ellipse 771" cx="304" cy="76" r="3" fill="#BA97A3"/>
<circle id="Ellipse 803" cx="136" cy="82" r="3" fill="#F0DBDB"/>
<circle id="Ellipse 804" cx="142" cy="82" r="3" fill="#BA97A3"/>
<circle id="Ellipse 805" cx="148" cy="82" r="3" fill="#85586F"/>
<circle id="Ellipse 809" cx="172" cy="82" r="3" fill="#BA97A3"/>
<circle id="Ellipse 810" cx="178" cy="82" r="3" fill="#BA97A3"/>
<circle id="Ellipse 811" cx="184" cy="82" r="3" fill="#F0DBDB"/>
<circle id="Ellipse 812" cx="190" cy="82" r="3" fill="#BA97A3"/>
<circle id="Ellipse 813" cx="196" cy="82" r="3" fill="#85586F"/>
<circle id="Ellipse 814" cx="202" cy="82" r="3" fill="#85586F"/>
<circle id="Ellipse 815" cx="208" cy="82" r="3" fill="#BA97A3"/>
<circle id="Ellipse 816" cx="214" cy="82" r="3" fill="#85586F"/>
<circle id="Ellipse 817" cx="220" cy="82" r="3" fill="#85586F"/>
<circle id="Ellipse 830" cx="298" cy="82" r="3" fill="#85586F"/>
<circle id="Ellipse 831" cx="304" cy="82" r="3" fill="#F0DBDB"/>
<circle id="Ellipse 863" cx="136" cy="88" r="3" fill="#F0DBDB"/>
<circle id="Ellipse 864" cx="142" cy="88" r="3" fill="#F0DBDB"/>
<circle id="Ellipse 865" cx="148" cy="88" r="3" fill="#85586F"/>
<circle id="Ellipse 866" cx="154" cy="88" r="3" fill="#85586F"/>
<circle id="Ellipse 869" cx="172" cy="88" r="3" fill="#BA97A3"/>
<circle id="Ellipse 870" cx="178" cy="88" r="3" fill="#85586F"/>
<circle id="Ellipse 871" cx="184" cy="88" r="3" fill="#BA97A3"/>
<circle id="Ellipse 872" cx="190" cy="88" r="3" fill="#F0DBDB"/>
<circle id="Ellipse 873" cx="196" cy="88" r="3" fill="#BA97A3"/>
<circle id="Ellipse 874" cx="202" cy="88" r="3" fill="#85586F"/>
<circle id="Ellipse 875" cx="208" cy="88" r="3" fill="#BA97A3"/>
<circle id="Ellipse 876" cx="214" cy="88" r="3" fill="#85586F"/>
<circle id="Ellipse 890" cx="298" cy="88" r="3" fill="#85586F"/>
<circle id="Ellipse 891" cx="304" cy="88" r="3" fill="#F0DBDB"/>
<circle id="Ellipse 923" cx="136" cy="94" r="3" fill="#F0DBDB"/>
<circle id="Ellipse 924" cx="142" cy="94" r="3" fill="#F0DBDB"/>
<circle id="Ellipse 925" cx="148" cy="94" r="3" fill="#BA97A3"/>
<circle id="Ellipse 926" cx="154" cy="94" r="3" fill="#85586F"/>
<circle id="Ellipse 928" cx="166" cy="94" r="3" fill="#85586F"/>
<circle id="Ellipse 929" cx="172" cy="94" r="3" fill="#85586F"/>
<circle id="Ellipse 930" cx="178" cy="94" r="3" fill="#BA97A3"/>
<circle id="Ellipse 931" cx="184" cy="94" r="3" fill="#BA97A3"/>
<circle id="Ellipse 932" cx="190" cy="94" r="3" fill="#F0DBDB"/>
<circle id="Ellipse 933" cx="196" cy="94" r="3" fill="#BA97A3"/>
<circle id="Ellipse 934" cx="202" cy="94" r="3" fill="#85586F"/>
<circle id="Ellipse 935" cx="208" cy="94" r="3" fill="#85586F"/>
<circle id="Ellipse 936" cx="214" cy="94" r="3" fill="#85586F"/>
<circle id="Ellipse 950" cx="298" cy="94" r="3" fill="#85586F"/>
<circle id="Ellipse 951" cx="304" cy="94" r="3" fill="#BA97A3"/>
<circle id="Ellipse 984" cx="142" cy="100" r="3" fill="#F0DBDB"/>
<circle id="Ellipse 985" cx="148" cy="100" r="3" fill="#F0DBDB"/>
<circle id="Ellipse 986" cx="154" cy="100" r="3" fill="#BA97A3"/>
<circle id="Ellipse 987" cx="160" cy="100" r="3" fill="#85586F"/>
<circle id="Ellipse 990" cx="178" cy="100" r="3" fill="#85586F"/>
<circle id="Ellipse 991" cx="184" cy="100" r="3" fill="#BA97A3"/>
<circle id="Ellipse 992" cx="190" cy="100" r="3" fill="#BA97A3"/>
<circle id="Ellipse 993" cx="196" cy="100" r="3" fill="#85586F"/>
<circle id="Ellipse 994" cx="202" cy="100" r="3" fill="#85586F"/>
<circle id="Ellipse 995" cx="208" cy="100" r="3" fill="#BA97A3"/>
<circle id="Ellipse 996" cx="214" cy="100" r="3" fill="#85586F"/>
<circle id="Ellipse 1010" cx="298" cy="100" r="3" fill="#85586F"/>
<circle id="Ellipse 1011" cx="304" cy="100" r="3" fill="#BA97A3"/>
<circle id="Ellipse 1013" cx="316" cy="100" r="3" fill="#85586F"/>
<circle id="Ellipse 1014" cx="322" cy="100" r="3" fill="#BA97A3"/>
<circle id="Ellipse 1017" cx="340" cy="100" r="3" fill="#85586F"/>
<circle id="Ellipse 1044" cx="142" cy="106" r="3" fill="#F0DBDB"/>
<circle id="Ellipse 1045" cx="148" cy="106" r="3" fill="#F0DBDB"/>
<circle id="Ellipse 1046" cx="154" cy="106" r="3" fill="#BA97A3"/>
<circle id="Ellipse 1047" cx="160" cy="106" r="3" fill="#85586F"/>
<circle id="Ellipse 1048" cx="166" cy="106" r="3" fill="#85586F"/>
<circle id="Ellipse 1051" cx="184" cy="106" r="3" fill="#85586F"/>
<circle id="Ellipse 1052" cx="190" cy="106" r="3" fill="#85586F"/>
<circle id="Ellipse 1053" cx="196" cy="106" r="3" fill="#85586F"/>
<circle id="Ellipse 1054" cx="202" cy="106" r="3" fill="#85586F"/>
<circle id="Ellipse 1055" cx="208" cy="106" r="3" fill="#BA97A3"/>
<circle id="Ellipse 1056" cx="214" cy="106" r="3" fill="#BA97A3"/>
<circle id="Ellipse 1067" cx="280" cy="106" r="3" fill="#85586F"/>
<circle id="Ellipse 1068" cx="286" cy="106" r="3" fill="#85586F"/>
<circle id="Ellipse 1070" cx="298" cy="106" r="3" fill="#85586F"/>
<circle id="Ellipse 1071" cx="304" cy="106" r="3" fill="#BA97A3"/>
<circle id="Ellipse 1073" cx="316" cy="106" r="3" fill="#85586F"/>
<circle id="Ellipse 1074" cx="322" cy="106" r="3" fill="#BA97A3"/>
<circle id="Ellipse 1077" cx="340" cy="106" r="3" fill="#85586F"/>
<circle id="Ellipse 1085" cx="28" cy="112" r="3" fill="#85586F"/>
<circle id="Ellipse 1086" cx="34" cy="112" r="3" fill="#85586F"/>
<circle id="Ellipse 1087" cx="40" cy="112" r="3" fill="#85586F"/>
<circle id="Ellipse 1088" cx="46" cy="112" r="3" fill="#BA97A3"/>
<circle id="Ellipse 1104" cx="142" cy="112" r="3" fill="#BA97A3"/>
<circle id="Ellipse 1105" cx="148" cy="112" r="3" fill="#BA97A3"/>
<circle id="Ellipse 1106" cx="154" cy="112" r="3" fill="#85586F"/>
<circle id="Ellipse 1107" cx="160" cy="112" r="3" fill="#BA97A3"/>
<circle id="Ellipse 1108" cx="166" cy="112" r="3" fill="#BA97A3"/>
<circle id="Ellipse 1109" cx="172" cy="112" r="3" fill="#BA97A3"/>
<circle id="Ellipse 1110" cx="178" cy="112" r="3" fill="#85586F"/>
<circle id="Ellipse 1111" cx="184" cy="112" r="3" fill="#BA97A3"/>
<circle id="Ellipse 1112" cx="190" cy="112" r="3" fill="#BA97A3"/>
<circle id="Ellipse 1113" cx="196" cy="112" r="3" fill="#BA97A3"/>
<circle id="Ellipse 1114" cx="202" cy="112" r="3" fill="#85586F"/>
<circle id="Ellipse 1115" cx="208" cy="112" r="3" fill="#85586F"/>
<circle id="Ellipse 1116" cx="214" cy="112" r="3" fill="#BA97A3"/>
<circle id="Ellipse 1125" cx="268" cy="112" r="3" fill="#85586F"/>
<circle id="Ellipse 1127" cx="280" cy="112" r="3" fill="#BA97A3"/>
<circle id="Ellipse 1128" cx="286" cy="112" r="3" fill="#F0DBDB"/>
<circle id="Ellipse 1130" cx="298" cy="112" r="3" fill="#85586F"/>
<circle id="Ellipse 1131" cx="304" cy="112" r="3" fill="#BA97A3"/>
<circle id="Ellipse 1133" cx="316" cy="112" r="3" fill="#85586F"/>
<circle id="Ellipse 1134" cx="322" cy="112" r="3" fill="#BA97A3"/>
<circle id="Ellipse 1137" cx="340" cy="112" r="3" fill="#85586F"/>
<circle id="Ellipse 1145" cx="28" cy="118" r="3" fill="#85586F"/>
<circle id="Ellipse 1146" cx="34" cy="118" r="3" fill="#BA97A3"/>
<circle id="Ellipse 1147" cx="40" cy="118" r="3" fill="#BA97A3"/>
<circle id="Ellipse 1148" cx="46" cy="118" r="3" fill="#BA97A3"/>
<circle id="Ellipse 1163" cx="136" cy="118" r="3" fill="#85586F"/>
<circle id="Ellipse 1164" cx="142" cy="118" r="3" fill="#F0DBDB"/>
<circle id="Ellipse 1165" cx="148" cy="118" r="3" fill="#85586F"/>
<circle id="Ellipse 1166" cx="154" cy="118" r="3" fill="#BA97A3"/>
<circle id="Ellipse 1167" cx="160" cy="118" r="3" fill="#BA97A3"/>
<circle id="Ellipse 1168" cx="166" cy="118" r="3" fill="#F0DBDB"/>
<circle id="Ellipse 1169" cx="172" cy="118" r="3" fill="#85586F"/>
<circle id="Ellipse 1170" cx="178" cy="118" r="3" fill="#BA97A3"/>
<circle id="Ellipse 1171" cx="184" cy="118" r="3" fill="#BA97A3"/>
<circle id="Ellipse 1172" cx="190" cy="118" r="3" fill="#F0DBDB"/>
<circle id="Ellipse 1173" cx="196" cy="118" r="3" fill="#F0DBDB"/>
<circle id="Ellipse 1174" cx="202" cy="118" r="3" fill="#85586F"/>
<circle id="Ellipse 1175" cx="208" cy="118" r="3" fill="#85586F"/>
<circle id="Ellipse 1176" cx="214" cy="118" r="3" fill="#BA97A3"/>
<circle id="Ellipse 1177" cx="220" cy="118" r="3" fill="#85586F"/>
<circle id="Ellipse 1180" cx="238" cy="118" r="3" fill="#85586F"/>
<circle id="Ellipse 1183" cx="256" cy="118" r="3" fill="#BA97A3"/>
<circle id="Ellipse 1185" cx="268" cy="118" r="3" fill="#85586F"/>
<circle id="Ellipse 1187" cx="280" cy="118" r="3" fill="#BA97A3"/>
<circle id="Ellipse 1188" cx="286" cy="118" r="3" fill="#F0DBDB"/>
<circle id="Ellipse 1190" cx="298" cy="118" r="3" fill="#85586F"/>
<circle id="Ellipse 1191" cx="304" cy="118" r="3" fill="#BA97A3"/>
<circle id="Ellipse 1192" cx="310" cy="118" r="3" fill="#85586F"/>
<circle id="Ellipse 1193" cx="316" cy="118" r="3" fill="#85586F"/>
<circle id="Ellipse 1194" cx="322" cy="118" r="3" fill="#BA97A3"/>
<circle id="Ellipse 1195" cx="328" cy="118" r="3" fill="#BA97A3"/>
<circle id="Ellipse 1196" cx="334" cy="118" r="3" fill="#F0DBDB"/>
<circle id="Ellipse 1197" cx="340" cy="118" r="3" fill="#85586F"/>
<circle id="Ellipse 1198" cx="346" cy="118" r="3" fill="#BA97A3"/>
<circle id="Ellipse 1205" cx="28" cy="124" r="3" fill="#85586F"/>
<circle id="Ellipse 1206" cx="34" cy="124" r="3" fill="#BA97A3"/>
<circle id="Ellipse 1207" cx="40" cy="124" r="3" fill="#BA97A3"/>
<circle id="Ellipse 1208" cx="46" cy="124" r="3" fill="#BA97A3"/>
<circle id="Ellipse 1217" cx="100" cy="124" r="3" fill="#85586F"/>
<circle id="Ellipse 1218" cx="106" cy="124" r="3" fill="#85586F"/>
<circle id="Ellipse 1219" cx="112" cy="124" r="3" fill="#BA97A3"/>
<circle id="Ellipse 1223" cx="136" cy="124" r="3" fill="#BA97A3"/>
<circle id="Ellipse 1224" cx="142" cy="124" r="3" fill="#BA97A3"/>
<circle id="Ellipse 1225" cx="148" cy="124" r="3" fill="#BA97A3"/>
<circle id="Ellipse 1226" cx="154" cy="124" r="3" fill="#F0DBDB"/>
<circle id="Ellipse 1227" cx="160" cy="124" r="3" fill="#BA97A3"/>
<circle id="Ellipse 1228" cx="166" cy="124" r="3" fill="#BA97A3"/>
<circle id="Ellipse 1229" cx="172" cy="124" r="3" fill="#F0DBDB"/>
<circle id="Ellipse 1230" cx="178" cy="124" r="3" fill="#F0DBDB"/>
<circle id="Ellipse 1231" cx="184" cy="124" r="3" fill="#BA97A3"/>
<circle id="Ellipse 1232" cx="190" cy="124" r="3" fill="#BA97A3"/>
<circle id="Ellipse 1233" cx="196" cy="124" r="3" fill="#BA97A3"/>
<circle id="Ellipse 1234" cx="202" cy="124" r="3" fill="#F0DBDB"/>
<circle id="Ellipse 1235" cx="208" cy="124" r="3" fill="#BA97A3"/>
<circle id="Ellipse 1236" cx="214" cy="124" r="3" fill="#BA97A3"/>
<circle id="Ellipse 1237" cx="220" cy="124" r="3" fill="#BA97A3"/>
<circle id="Ellipse 1238" cx="226" cy="124" r="3" fill="#BA97A3"/>
<circle id="Ellipse 1240" cx="238" cy="124" r="3" fill="#85586F"/>
<circle id="Ellipse 1241" cx="244" cy="124" r="3" fill="#BA97A3"/>
<circle id="Ellipse 1242" cx="250" cy="124" r="3" fill="#85586F"/>
<circle id="Ellipse 1243" cx="256" cy="124" r="3" fill="#BA97A3"/>
<circle id="Ellipse 1245" cx="268" cy="124" r="3" fill="#85586F"/>
<circle id="Ellipse 1246" cx="274" cy="124" r="3" fill="#85586F"/>
<circle id="Ellipse 1247" cx="280" cy="124" r="3" fill="#85586F"/>
<circle id="Ellipse 1248" cx="286" cy="124" r="3" fill="#F0DBDB"/>
<circle id="Ellipse 1249" cx="292" cy="124" r="3" fill="#BA97A3"/>
<circle id="Ellipse 1250" cx="298" cy="124" r="3" fill="#BA97A3"/>
<circle id="Ellipse 1251" cx="304" cy="124" r="3" fill="#BA97A3"/>
<circle id="Ellipse 1252" cx="310" cy="124" r="3" fill="#85586F"/>
<circle id="Ellipse 1253" cx="316" cy="124" r="3" fill="#85586F"/>
<circle id="Ellipse 1254" cx="322" cy="124" r="3" fill="#85586F"/>
<circle id="Ellipse 1255" cx="328" cy="124" r="3" fill="#BA97A3"/>
<circle id="Ellipse 1256" cx="334" cy="124" r="3" fill="#BA97A3"/>
<circle id="Ellipse 1257" cx="340" cy="124" r="3" fill="#85586F"/>
<circle id="Ellipse 1258" cx="346" cy="124" r="3" fill="#BA97A3"/>
<circle id="Ellipse 1259" cx="352" cy="124" r="3" fill="#BA97A3"/>
<circle id="Ellipse 1265" cx="28" cy="130" r="3" fill="#85586F"/>
<circle id="Ellipse 1266" cx="34" cy="130" r="3" fill="#BA97A3"/>
<circle id="Ellipse 1267" cx="40" cy="130" r="3" fill="#BA97A3"/>
<circle id="Ellipse 1268" cx="46" cy="130" r="3" fill="#BA97A3"/>
<circle id="Ellipse 1277" cx="100" cy="130" r="3" fill="#BA97A3"/>
<circle id="Ellipse 1278" cx="106" cy="130" r="3" fill="#BA97A3"/>
<circle id="Ellipse 1279" cx="112" cy="130" r="3" fill="#BA97A3"/>
<circle id="Ellipse 1283" cx="136" cy="130" r="3" fill="#F0DBDB"/>
<circle id="Ellipse 1284" cx="142" cy="130" r="3" fill="#BA97A3"/>
<circle id="Ellipse 1285" cx="148" cy="130" r="3" fill="#BA97A3"/>
<circle id="Ellipse 1286" cx="154" cy="130" r="3" fill="#BA97A3"/>
<circle id="Ellipse 1287" cx="160" cy="130" r="3" fill="#F0DBDB"/>
<circle id="Ellipse 1288" cx="166" cy="130" r="3" fill="#F0DBDB"/>
<circle id="Ellipse 1289" cx="172" cy="130" r="3" fill="#F0DBDB"/>
<circle id="Ellipse 1290" cx="178" cy="130" r="3" fill="#BA97A3"/>
<circle id="Ellipse 1291" cx="184" cy="130" r="3" fill="#BA97A3"/>
<circle id="Ellipse 1292" cx="190" cy="130" r="3" fill="#BA97A3"/>
<circle id="Ellipse 1293" cx="196" cy="130" r="3" fill="#F0DBDB"/>
<circle id="Ellipse 1294" cx="202" cy="130" r="3" fill="#F0DBDB"/>
<circle id="Ellipse 1295" cx="208" cy="130" r="3" fill="#BA97A3"/>
<circle id="Ellipse 1296" cx="214" cy="130" r="3" fill="#85586F"/>
<circle id="Ellipse 1297" cx="220" cy="130" r="3" fill="#F0DBDB"/>
<circle id="Ellipse 1298" cx="226" cy="130" r="3" fill="#85586F"/>
<circle id="Ellipse 1299" cx="232" cy="130" r="3" fill="#BA97A3"/>
<circle id="Ellipse 1300" cx="238" cy="130" r="3" fill="#85586F"/>
<circle id="Ellipse 1301" cx="244" cy="130" r="3" fill="#BA97A3"/>
<circle id="Ellipse 1302" cx="250" cy="130" r="3" fill="#85586F"/>
<circle id="Ellipse 1303" cx="256" cy="130" r="3" fill="#BA97A3"/>
<circle id="Ellipse 1304" cx="262" cy="130" r="3" fill="#BA97A3"/>
<circle id="Ellipse 1305" cx="268" cy="130" r="3" fill="#85586F"/>
<circle id="Ellipse 1306" cx="274" cy="130" r="3" fill="#BA97A3"/>
<circle id="Ellipse 1307" cx="280" cy="130" r="3" fill="#85586F"/>
<circle id="Ellipse 1308" cx="286" cy="130" r="3" fill="#BA97A3"/>
<circle id="Ellipse 1309" cx="292" cy="130" r="3" fill="#85586F"/>
<circle id="Ellipse 1310" cx="298" cy="130" r="3" fill="#BA97A3"/>
<circle id="Ellipse 1311" cx="304" cy="130" r="3" fill="#F0DBDB"/>
<circle id="Ellipse 1312" cx="310" cy="130" r="3" fill="#85586F"/>
<circle id="Ellipse 1313" cx="316" cy="130" r="3" fill="#85586F"/>
<circle id="Ellipse 1314" cx="322" cy="130" r="3" fill="#85586F"/>
<circle id="Ellipse 1315" cx="328" cy="130" r="3" fill="#BA97A3"/>
<circle id="Ellipse 1316" cx="334" cy="130" r="3" fill="#BA97A3"/>
<circle id="Ellipse 1317" cx="340" cy="130" r="3" fill="#85586F"/>
<circle id="Ellipse 1318" cx="346" cy="130" r="3" fill="#BA97A3"/>
<circle id="Ellipse 1319" cx="352" cy="130" r="3" fill="#85586F"/>
<circle id="Ellipse 1320" cx="358" cy="130" r="3" fill="#BA97A3"/>
<circle id="Ellipse 1325" cx="28" cy="136" r="3" fill="#85586F"/>
<circle id="Ellipse 1326" cx="34" cy="136" r="3" fill="#85586F"/>
<circle id="Ellipse 1327" cx="40" cy="136" r="3" fill="#85586F"/>
<circle id="Ellipse 1328" cx="46" cy="136" r="3" fill="#BA97A3"/>
<circle id="Ellipse 1329" cx="52" cy="136" r="3" fill="#BA97A3"/>
<circle id="Ellipse 1330" cx="58" cy="136" r="3" fill="#85586F"/>
<circle id="Ellipse 1331" cx="64" cy="136" r="3" fill="#85586F"/>
<circle id="Ellipse 1332" cx="70" cy="136" r="3" fill="#85586F"/>
<circle id="Ellipse 1333" cx="76" cy="136" r="3" fill="#85586F"/>
<circle id="Ellipse 1334" cx="82" cy="136" r="3" fill="#85586F"/>
<circle id="Ellipse 1335" cx="88" cy="136" r="3" fill="#85586F"/>
<circle id="Ellipse 1336" cx="94" cy="136" r="3" fill="#85586F"/>
<circle id="Ellipse 1337" cx="100" cy="136" r="3" fill="#BA97A3"/>
<circle id="Ellipse 1338" cx="106" cy="136" r="3" fill="#BA97A3"/>
<circle id="Ellipse 1339" cx="112" cy="136" r="3" fill="#BA97A3"/>
<circle id="Ellipse 1343" cx="136" cy="136" r="3" fill="#BA97A3"/>
<circle id="Ellipse 1344" cx="142" cy="136" r="3" fill="#85586F"/>
<circle id="Ellipse 1345" cx="148" cy="136" r="3" fill="#BA97A3"/>
<circle id="Ellipse 1346" cx="154" cy="136" r="3" fill="#85586F"/>
<circle id="Ellipse 1347" cx="160" cy="136" r="3" fill="#F0DBDB"/>
<circle id="Ellipse 1348" cx="166" cy="136" r="3" fill="#F0DBDB"/>
<circle id="Ellipse 1349" cx="172" cy="136" r="3" fill="#85586F"/>
<circle id="Ellipse 1350" cx="178" cy="136" r="3" fill="#F0DBDB"/>
<circle id="Ellipse 1351" cx="184" cy="136" r="3" fill="#BA97A3"/>
<circle id="Ellipse 1352" cx="190" cy="136" r="3" fill="#BA97A3"/>
<circle id="Ellipse 1353" cx="196" cy="136" r="3" fill="#F0DBDB"/>
<circle id="Ellipse 1354" cx="202" cy="136" r="3" fill="#F0DBDB"/>
<circle id="Ellipse 1355" cx="208" cy="136" r="3" fill="#85586F"/>
<circle id="Ellipse 1356" cx="214" cy="136" r="3" fill="#85586F"/>
<circle id="Ellipse 1357" cx="220" cy="136" r="3" fill="#BA97A3"/>
<circle id="Ellipse 1358" cx="226" cy="136" r="3" fill="#BA97A3"/>
<circle id="Ellipse 1359" cx="232" cy="136" r="3" fill="#85586F"/>
<circle id="Ellipse 1360" cx="238" cy="136" r="3" fill="#BA97A3"/>
<circle id="Ellipse 1361" cx="244" cy="136" r="3" fill="#85586F"/>
<circle id="Ellipse 1362" cx="250" cy="136" r="3" fill="#85586F"/>
<circle id="Ellipse 1363" cx="256" cy="136" r="3" fill="#85586F"/>
<circle id="Ellipse 1364" cx="262" cy="136" r="3" fill="#BA97A3"/>
<circle id="Ellipse 1365" cx="268" cy="136" r="3" fill="#85586F"/>
<circle id="Ellipse 1366" cx="274" cy="136" r="3" fill="#BA97A3"/>
<circle id="Ellipse 1367" cx="280" cy="136" r="3" fill="#85586F"/>
<circle id="Ellipse 1368" cx="286" cy="136" r="3" fill="#BA97A3"/>
<circle id="Ellipse 1369" cx="292" cy="136" r="3" fill="#85586F"/>
<circle id="Ellipse 1370" cx="298" cy="136" r="3" fill="#BA97A3"/>
<circle id="Ellipse 1371" cx="304" cy="136" r="3" fill="#BA97A3"/>
<circle id="Ellipse 1372" cx="310" cy="136" r="3" fill="#BA97A3"/>
<circle id="Ellipse 1373" cx="316" cy="136" r="3" fill="#F0DBDB"/>
<circle id="Ellipse 1374" cx="322" cy="136" r="3" fill="#85586F"/>
<circle id="Ellipse 1375" cx="328" cy="136" r="3" fill="#BA97A3"/>
<circle id="Ellipse 1376" cx="334" cy="136" r="3" fill="#BA97A3"/>
<circle id="Ellipse 1377" cx="340" cy="136" r="3" fill="#85586F"/>
<circle id="Ellipse 1378" cx="346" cy="136" r="3" fill="#85586F"/>
<circle id="Ellipse 1379" cx="352" cy="136" r="3" fill="#85586F"/>
<circle id="Ellipse 1380" cx="358" cy="136" r="3" fill="#BA97A3"/>
<circle id="Ellipse 1383" cx="16" cy="142" r="3" fill="#85586F"/>
<circle id="Ellipse 1385" cx="28" cy="142" r="3" fill="#85586F"/>
<circle id="Ellipse 1386" cx="34" cy="142" r="3" fill="#85586F"/>
<circle id="Ellipse 1387" cx="40" cy="142" r="3" fill="#85586F"/>
<circle id="Ellipse 1388" cx="46" cy="142" r="3" fill="#BA97A3"/>
<circle id="Ellipse 1389" cx="52" cy="142" r="3" fill="#BA97A3"/>
<circle id="Ellipse 1392" cx="70" cy="142" r="3" fill="#85586F"/>
<circle id="Ellipse 1397" cx="100" cy="142" r="3" fill="#85586F"/>
<circle id="Ellipse 1398" cx="106" cy="142" r="3" fill="#85586F"/>
<circle id="Ellipse 1399" cx="112" cy="142" r="3" fill="#BA97A3"/>
<circle id="Ellipse 1400" cx="118" cy="142" r="3" fill="#85586F"/>
<circle id="Ellipse 1401" cx="124" cy="142" r="3" fill="#85586F"/>
<circle id="Ellipse 1402" cx="130" cy="142" r="3" fill="#85586F"/>
<circle id="Ellipse 1403" cx="136" cy="142" r="3" fill="#85586F"/>
<circle id="Ellipse 1404" cx="142" cy="142" r="3" fill="#85586F"/>
<circle id="Ellipse 1405" cx="148" cy="142" r="3" fill="#BA97A3"/>
<circle id="Ellipse 1406" cx="154" cy="142" r="3" fill="#BA97A3"/>
<circle id="Ellipse 1407" cx="160" cy="142" r="3" fill="#F0DBDB"/>
<circle id="Ellipse 1408" cx="166" cy="142" r="3" fill="#BA97A3"/>
<circle id="Ellipse 1409" cx="172" cy="142" r="3" fill="#F0DBDB"/>
<circle id="Ellipse 1410" cx="178" cy="142" r="3" fill="#BA97A3"/>
<circle id="Ellipse 1411" cx="184" cy="142" r="3" fill="#BA97A3"/>
<circle id="Ellipse 1412" cx="190" cy="142" r="3" fill="#BA97A3"/>
<circle id="Ellipse 1413" cx="196" cy="142" r="3" fill="#F0DBDB"/>
<circle id="Ellipse 1414" cx="202" cy="142" r="3" fill="#F0DBDB"/>
<circle id="Ellipse 1415" cx="208" cy="142" r="3" fill="#85586F"/>
<circle id="Ellipse 1416" cx="214" cy="142" r="3" fill="#85586F"/>
<circle id="Ellipse 1417" cx="220" cy="142" r="3" fill="#BA97A3"/>
<circle id="Ellipse 1418" cx="226" cy="142" r="3" fill="#BA97A3"/>
<circle id="Ellipse 1419" cx="232" cy="142" r="3" fill="#85586F"/>
<circle id="Ellipse 1420" cx="238" cy="142" r="3" fill="#BA97A3"/>
<circle id="Ellipse 1421" cx="244" cy="142" r="3" fill="#85586F"/>
<circle id="Ellipse 1422" cx="250" cy="142" r="3" fill="#85586F"/>
<circle id="Ellipse 1423" cx="256" cy="142" r="3" fill="#BA97A3"/>
<circle id="Ellipse 1424" cx="262" cy="142" r="3" fill="#F0DBDB"/>
<circle id="Ellipse 1425" cx="268" cy="142" r="3" fill="#85586F"/>
<circle id="Ellipse 1426" cx="274" cy="142" r="3" fill="#85586F"/>
<circle id="Ellipse 1427" cx="280" cy="142" r="3" fill="#85586F"/>
<circle id="Ellipse 1428" cx="286" cy="142" r="3" fill="#BA97A3"/>
<circle id="Ellipse 1429" cx="292" cy="142" r="3" fill="#85586F"/>
<circle id="Ellipse 1430" cx="298" cy="142" r="3" fill="#85586F"/>
<circle id="Ellipse 1431" cx="304" cy="142" r="3" fill="#BA97A3"/>
<circle id="Ellipse 1432" cx="310" cy="142" r="3" fill="#BA97A3"/>
<circle id="Ellipse 1433" cx="316" cy="142" r="3" fill="#F0DBDB"/>
<circle id="Ellipse 1434" cx="322" cy="142" r="3" fill="#85586F"/>
<circle id="Ellipse 1435" cx="328" cy="142" r="3" fill="#85586F"/>
<circle id="Ellipse 1436" cx="334" cy="142" r="3" fill="#85586F"/>
<circle id="Ellipse 1437" cx="340" cy="142" r="3" fill="#85586F"/>
<circle id="Ellipse 1438" cx="346" cy="142" r="3" fill="#85586F"/>
<circle id="Ellipse 1439" cx="352" cy="142" r="3" fill="#85586F"/>
<circle id="Ellipse 1440" cx="358" cy="142" r="3" fill="#BA97A3"/>
<circle id="Ellipse 1441" cx="4" cy="148" r="3" fill="#85586F"/>
<circle id="Ellipse 1442" cx="10" cy="148" r="3" fill="#85586F"/>
<circle id="Ellipse 1443" cx="16" cy="148" r="3" fill="#85586F"/>
<circle id="Ellipse 1444" cx="22" cy="148" r="3" fill="#85586F"/>
<circle id="Ellipse 1445" cx="28" cy="148" r="3" fill="#85586F"/>
<circle id="Ellipse 1446" cx="34" cy="148" r="3" fill="#85586F"/>
<circle id="Ellipse 1447" cx="40" cy="148" r="3" fill="#85586F"/>
<circle id="Ellipse 1448" cx="46" cy="148" r="3" fill="#BA97A3"/>
<circle id="Ellipse 1449" cx="52" cy="148" r="3" fill="#BA97A3"/>
<circle id="Ellipse 1450" cx="58" cy="148" r="3" fill="#85586F"/>
<circle id="Ellipse 1451" cx="64" cy="148" r="3" fill="#85586F"/>
<circle id="Ellipse 1452" cx="70" cy="148" r="3" fill="#85586F"/>
<circle id="Ellipse 1453" cx="76" cy="148" r="3" fill="#85586F"/>
<circle id="Ellipse 1454" cx="82" cy="148" r="3" fill="#85586F"/>
<circle id="Ellipse 1455" cx="88" cy="148" r="3" fill="#85586F"/>
<circle id="Ellipse 1456" cx="94" cy="148" r="3" fill="#85586F"/>
<circle id="Ellipse 1457" cx="100" cy="148" r="3" fill="#85586F"/>
<circle id="Ellipse 1458" cx="106" cy="148" r="3" fill="#85586F"/>
<circle id="Ellipse 1459" cx="112" cy="148" r="3" fill="#BA97A3"/>
<circle id="Ellipse 1460" cx="118" cy="148" r="3" fill="#85586F"/>
<circle id="Ellipse 1461" cx="124" cy="148" r="3" fill="#85586F"/>
<circle id="Ellipse 1462" cx="130" cy="148" r="3" fill="#85586F"/>
<circle id="Ellipse 1463" cx="136" cy="148" r="3" fill="#85586F"/>
<circle id="Ellipse 1464" cx="142" cy="148" r="3" fill="#85586F"/>
<circle id="Ellipse 1465" cx="148" cy="148" r="3" fill="#BA97A3"/>
<circle id="Ellipse 1466" cx="154" cy="148" r="3" fill="#F0DBDB"/>
<circle id="Ellipse 1467" cx="160" cy="148" r="3" fill="#BA97A3"/>
<circle id="Ellipse 1468" cx="166" cy="148" r="3" fill="#F0DBDB"/>
<circle id="Ellipse 1469" cx="172" cy="148" r="3" fill="#BA97A3"/>
<circle id="Ellipse 1470" cx="178" cy="148" r="3" fill="#85586F"/>
<circle id="Ellipse 1471" cx="184" cy="148" r="3" fill="#BA97A3"/>
<circle id="Ellipse 1472" cx="190" cy="148" r="3" fill="#BA97A3"/>
<circle id="Ellipse 1473" cx="196" cy="148" r="3" fill="#F0DBDB"/>
<circle id="Ellipse 1474" cx="202" cy="148" r="3" fill="#BA97A3"/>
<circle id="Ellipse 1475" cx="208" cy="148" r="3" fill="#BA97A3"/>
<circle id="Ellipse 1476" cx="214" cy="148" r="3" fill="#85586F"/>
<circle id="Ellipse 1477" cx="220" cy="148" r="3" fill="#BA97A3"/>
<circle id="Ellipse 1478" cx="226" cy="148" r="3" fill="#BA97A3"/>
<circle id="Ellipse 1479" cx="232" cy="148" r="3" fill="#85586F"/>
<circle id="Ellipse 1480" cx="238" cy="148" r="3" fill="#85586F"/>
<circle id="Ellipse 1481" cx="244" cy="148" r="3" fill="#BA97A3"/>
<circle id="Ellipse 1482" cx="250" cy="148" r="3" fill="#BA97A3"/>
<circle id="Ellipse 1483" cx="256" cy="148" r="3" fill="#F0DBDB"/>
<circle id="Ellipse 1484" cx="262" cy="148" r="3" fill="#BA97A3"/>
<circle id="Ellipse 1485" cx="268" cy="148" r="3" fill="#85586F"/>
<circle id="Ellipse 1486" cx="274" cy="148" r="3" fill="#85586F"/>
<circle id="Ellipse 1487" cx="280" cy="148" r="3" fill="#85586F"/>
<circle id="Ellipse 1488" cx="286" cy="148" r="3" fill="#85586F"/>
<circle id="Ellipse 1489" cx="292" cy="148" r="3" fill="#85586F"/>
<circle id="Ellipse 1490" cx="298" cy="148" r="3" fill="#85586F"/>
<circle id="Ellipse 1491" cx="304" cy="148" r="3" fill="#85586F"/>
<circle id="Ellipse 1492" cx="310" cy="148" r="3" fill="#85586F"/>
<circle id="Ellipse 1493" cx="316" cy="148" r="3" fill="#BA97A3"/>
<circle id="Ellipse 1494" cx="322" cy="148" r="3" fill="#85586F"/>
<circle id="Ellipse 1495" cx="328" cy="148" r="3" fill="#85586F"/>
<circle id="Ellipse 1496" cx="334" cy="148" r="3" fill="#85586F"/>
<circle id="Ellipse 1497" cx="340" cy="148" r="3" fill="#85586F"/>
<circle id="Ellipse 1498" cx="346" cy="148" r="3" fill="#85586F"/>
<circle id="Ellipse 1499" cx="352" cy="148" r="3" fill="#85586F"/>
<circle id="Ellipse 1500" cx="358" cy="148" r="3" fill="#85586F"/>
<circle id="Ellipse 1504" cx="22" cy="154" r="3" fill="#85586F"/>
<circle id="Ellipse 1505" cx="28" cy="154" r="3" fill="#85586F"/>
<circle id="Ellipse 1506" cx="34" cy="154" r="3" fill="#85586F"/>
<circle id="Ellipse 1507" cx="40" cy="154" r="3" fill="#85586F"/>
<circle id="Ellipse 1508" cx="46" cy="154" r="3" fill="#85586F"/>
<circle id="Ellipse 1509" cx="52" cy="154" r="3" fill="#BA97A3"/>
<circle id="Ellipse 1514" cx="82" cy="154" r="3" fill="#BA97A3"/>
<circle id="Ellipse 1515" cx="88" cy="154" r="3" fill="#BA97A3"/>
<circle id="Ellipse 1516" cx="94" cy="154" r="3" fill="#BA97A3"/>
<circle id="Ellipse 1517" cx="100" cy="154" r="3" fill="#BA97A3"/>
<circle id="Ellipse 1518" cx="106" cy="154" r="3" fill="#BA97A3"/>
<circle id="Ellipse 1519" cx="112" cy="154" r="3" fill="#BA97A3"/>
<circle id="Ellipse 1520" cx="118" cy="154" r="3" fill="#BA97A3"/>
<circle id="Ellipse 1521" cx="124" cy="154" r="3" fill="#BA97A3"/>
<circle id="Ellipse 1522" cx="130" cy="154" r="3" fill="#BA97A3"/>
<circle id="Ellipse 1525" cx="148" cy="154" r="3" fill="#BA97A3"/>
<circle id="Ellipse 1526" cx="154" cy="154" r="3" fill="#F0DBDB"/>
<circle id="Ellipse 1527" cx="160" cy="154" r="3" fill="#F0DBDB"/>
<circle id="Ellipse 1528" cx="166" cy="154" r="3" fill="#BA97A3"/>
<circle id="Ellipse 1529" cx="172" cy="154" r="3" fill="#BA97A3"/>
<circle id="Ellipse 1530" cx="178" cy="154" r="3" fill="#BA97A3"/>
<circle id="Ellipse 1531" cx="184" cy="154" r="3" fill="#BA97A3"/>
<circle id="Ellipse 1532" cx="190" cy="154" r="3" fill="#BA97A3"/>
<circle id="Ellipse 1533" cx="196" cy="154" r="3" fill="#F0DBDB"/>
<circle id="Ellipse 1534" cx="202" cy="154" r="3" fill="#BA97A3"/>
<circle id="Ellipse 1535" cx="208" cy="154" r="3" fill="#BA97A3"/>
<circle id="Ellipse 1536" cx="214" cy="154" r="3" fill="#85586F"/>
<circle id="Ellipse 1537" cx="220" cy="154" r="3" fill="#BA97A3"/>
<circle id="Ellipse 1538" cx="226" cy="154" r="3" fill="#BA97A3"/>
<circle id="Ellipse 1539" cx="232" cy="154" r="3" fill="#85586F"/>
<circle id="Ellipse 1540" cx="238" cy="154" r="3" fill="#85586F"/>
<circle id="Ellipse 1541" cx="244" cy="154" r="3" fill="#85586F"/>
<circle id="Ellipse 1542" cx="250" cy="154" r="3" fill="#F0DBDB"/>
<circle id="Ellipse 1543" cx="256" cy="154" r="3" fill="#F0DBDB"/>
<circle id="Ellipse 1544" cx="262" cy="154" r="3" fill="#BA97A3"/>
<circle id="Ellipse 1545" cx="268" cy="154" r="3" fill="#BA97A3"/>
<circle id="Ellipse 1549" cx="292" cy="154" r="3" fill="#BA97A3"/>
<circle id="Ellipse 1550" cx="298" cy="154" r="3" fill="#BA97A3"/>
<circle id="Ellipse 1551" cx="304" cy="154" r="3" fill="#85586F"/>
<circle id="Ellipse 1552" cx="310" cy="154" r="3" fill="#85586F"/>
<circle id="Ellipse 1553" cx="316" cy="154" r="3" fill="#85586F"/>
<circle id="Ellipse 1554" cx="322" cy="154" r="3" fill="#85586F"/>
<circle id="Ellipse 1555" cx="328" cy="154" r="3" fill="#85586F"/>
<circle id="Ellipse 1556" cx="334" cy="154" r="3" fill="#85586F"/>
<circle id="Ellipse 1565" cx="28" cy="160" r="3" fill="#F0DBDB"/>
<circle id="Ellipse 1566" cx="34" cy="160" r="3" fill="#F0DBDB"/>
<circle id="Ellipse 1567" cx="40" cy="160" r="3" fill="#F0DBDB"/>
<circle id="Ellipse 1568" cx="46" cy="160" r="3" fill="#F0DBDB"/>
<circle id="Ellipse 1569" cx="52" cy="160" r="3" fill="#F0DBDB"/>
<circle id="Ellipse 1570" cx="58" cy="160" r="3" fill="#F0DBDB"/>
<circle id="Ellipse 1571" cx="64" cy="160" r="3" fill="#F0DBDB"/>
<circle id="Ellipse 1577" cx="100" cy="160" r="3" fill="#85586F"/>
<circle id="Ellipse 1578" cx="106" cy="160" r="3" fill="#85586F"/>
<circle id="Ellipse 1579" cx="112" cy="160" r="3" fill="#85586F"/>
<circle id="Ellipse 1585" cx="148" cy="160" r="3" fill="#F0DBDB"/>
<circle id="Ellipse 1586" cx="154" cy="160" r="3" fill="#F0DBDB"/>
<circle id="Ellipse 1587" cx="160" cy="160" r="3" fill="#BA97A3"/>
<circle id="Ellipse 1588" cx="166" cy="160" r="3" fill="#BA97A3"/>
<circle id="Ellipse 1589" cx="172" cy="160" r="3" fill="#F0DBDB"/>
<circle id="Ellipse 1590" cx="178" cy="160" r="3" fill="#F0DBDB"/>
<circle id="Ellipse 1591" cx="184" cy="160" r="3" fill="#85586F"/>
<circle id="Ellipse 1592" cx="190" cy="160" r="3" fill="#F0DBDB"/>
<circle id="Ellipse 1593" cx="196" cy="160" r="3" fill="#F0DBDB"/>
<circle id="Ellipse 1594" cx="202" cy="160" r="3" fill="#BA97A3"/>
<circle id="Ellipse 1595" cx="208" cy="160" r="3" fill="#85586F"/>
<circle id="Ellipse 1596" cx="214" cy="160" r="3" fill="#BA97A3"/>
<circle id="Ellipse 1597" cx="220" cy="160" r="3" fill="#BA97A3"/>
<circle id="Ellipse 1598" cx="226" cy="160" r="3" fill="#BA97A3"/>
<circle id="Ellipse 1599" cx="232" cy="160" r="3" fill="#85586F"/>
<circle id="Ellipse 1600" cx="238" cy="160" r="3" fill="#85586F"/>
<circle id="Ellipse 1601" cx="244" cy="160" r="3" fill="#BA97A3"/>
<circle id="Ellipse 1602" cx="250" cy="160" r="3" fill="#F0DBDB"/>
<circle id="Ellipse 1603" cx="256" cy="160" r="3" fill="#F0DBDB"/>
<circle id="Ellipse 1604" cx="262" cy="160" r="3" fill="#BA97A3"/>
<circle id="Ellipse 1605" cx="268" cy="160" r="3" fill="#85586F"/>
<circle id="Ellipse 1609" cx="292" cy="160" r="3" fill="#BA97A3"/>
<circle id="Ellipse 1610" cx="298" cy="160" r="3" fill="#BA97A3"/>
<circle id="Ellipse 1611" cx="304" cy="160" r="3" fill="#BA97A3"/>
<circle id="Ellipse 1612" cx="310" cy="160" r="3" fill="#BA97A3"/>
<circle id="Ellipse 1613" cx="316" cy="160" r="3" fill="#BA97A3"/>
<circle id="Ellipse 1614" cx="322" cy="160" r="3" fill="#BA97A3"/>
<circle id="Ellipse 1615" cx="328" cy="160" r="3" fill="#BA97A3"/>
<circle id="Ellipse 1616" cx="334" cy="160" r="3" fill="#BA97A3"/>
<circle id="Ellipse 1617" cx="340" cy="160" r="3" fill="#F0DBDB"/>
<circle id="Ellipse 1630" cx="58" cy="166" r="3" fill="#F0DBDB"/>
<circle id="Ellipse 1631" cx="64" cy="166" r="3" fill="#F0DBDB"/>
<circle id="Ellipse 1632" cx="70" cy="166" r="3" fill="#F0DBDB"/>
<circle id="Ellipse 1633" cx="76" cy="166" r="3" fill="#F0DBDB"/>
<circle id="Ellipse 1634" cx="82" cy="166" r="3" fill="#F0DBDB"/>
<circle id="Ellipse 1645" cx="148" cy="166" r="3" fill="#F0DBDB"/>
<circle id="Ellipse 1646" cx="154" cy="166" r="3" fill="#BA97A3"/>
<circle id="Ellipse 1647" cx="160" cy="166" r="3" fill="#BA97A3"/>
<circle id="Ellipse 1648" cx="166" cy="166" r="3" fill="#F0DBDB"/>
<circle id="Ellipse 1649" cx="172" cy="166" r="3" fill="#F0DBDB"/>
<circle id="Ellipse 1650" cx="178" cy="166" r="3" fill="#F0DBDB"/>
<circle id="Ellipse 1651" cx="184" cy="166" r="3" fill="#85586F"/>
<circle id="Ellipse 1652" cx="190" cy="166" r="3" fill="#F0DBDB"/>
<circle id="Ellipse 1653" cx="196" cy="166" r="3" fill="#F0DBDB"/>
<circle id="Ellipse 1654" cx="202" cy="166" r="3" fill="#BA97A3"/>
<circle id="Ellipse 1655" cx="208" cy="166" r="3" fill="#85586F"/>
<circle id="Ellipse 1656" cx="214" cy="166" r="3" fill="#85586F"/>
<circle id="Ellipse 1657" cx="220" cy="166" r="3" fill="#BA97A3"/>
<circle id="Ellipse 1658" cx="226" cy="166" r="3" fill="#F0DBDB"/>
<circle id="Ellipse 1659" cx="232" cy="166" r="3" fill="#85586F"/>
<circle id="Ellipse 1660" cx="238" cy="166" r="3" fill="#85586F"/>
<circle id="Ellipse 1661" cx="244" cy="166" r="3" fill="#BA97A3"/>
<circle id="Ellipse 1662" cx="250" cy="166" r="3" fill="#F0DBDB"/>
<circle id="Ellipse 1663" cx="256" cy="166" r="3" fill="#BA97A3"/>
<circle id="Ellipse 1664" cx="262" cy="166" r="3" fill="#85586F"/>
<circle id="Ellipse 1665" cx="268" cy="166" r="3" fill="#85586F"/>
<circle id="Ellipse 1670" cx="298" cy="166" r="3" fill="#BA97A3"/>
<circle id="Ellipse 1671" cx="304" cy="166" r="3" fill="#85586F"/>
<circle id="Ellipse 1672" cx="310" cy="166" r="3" fill="#85586F"/>
<circle id="Ellipse 1673" cx="316" cy="166" r="3" fill="#85586F"/>
<circle id="Ellipse 1674" cx="322" cy="166" r="3" fill="#BA97A3"/>
<circle id="Ellipse 1675" cx="328" cy="166" r="3" fill="#F0DBDB"/>
<circle id="Ellipse 1696" cx="94" cy="172" r="3" fill="#F0DBDB"/>
<circle id="Ellipse 1697" cx="100" cy="172" r="3" fill="#F0DBDB"/>
<circle id="Ellipse 1698" cx="106" cy="172" r="3" fill="#F0DBDB"/>
<circle id="Ellipse 1699" cx="112" cy="172" r="3" fill="#F0DBDB"/>
<circle id="Ellipse 1704" cx="142" cy="172" r="3" fill="#F0DBDB"/>
<circle id="Ellipse 1705" cx="148" cy="172" r="3" fill="#BA97A3"/>
<circle id="Ellipse 1706" cx="154" cy="172" r="3" fill="#85586F"/>
<circle id="Ellipse 1707" cx="160" cy="172" r="3" fill="#F0DBDB"/>
<circle id="Ellipse 1708" cx="166" cy="172" r="3" fill="#F0DBDB"/>
<circle id="Ellipse 1709" cx="172" cy="172" r="3" fill="#F0DBDB"/>
<circle id="Ellipse 1710" cx="178" cy="172" r="3" fill="#BA97A3"/>
<circle id="Ellipse 1711" cx="184" cy="172" r="3" fill="#BA97A3"/>
<circle id="Ellipse 1712" cx="190" cy="172" r="3" fill="#F0DBDB"/>
<circle id="Ellipse 1713" cx="196" cy="172" r="3" fill="#F0DBDB"/>
<circle id="Ellipse 1714" cx="202" cy="172" r="3" fill="#85586F"/>
<circle id="Ellipse 1715" cx="208" cy="172" r="3" fill="#BA97A3"/>
<circle id="Ellipse 1716" cx="214" cy="172" r="3" fill="#85586F"/>
<circle id="Ellipse 1717" cx="220" cy="172" r="3" fill="#85586F"/>
<circle id="Ellipse 1718" cx="226" cy="172" r="3" fill="#F0DBDB"/>
<circle id="Ellipse 1719" cx="232" cy="172" r="3" fill="#85586F"/>
<circle id="Ellipse 1720" cx="238" cy="172" r="3" fill="#85586F"/>
<circle id="Ellipse 1721" cx="244" cy="172" r="3" fill="#F0DBDB"/>
<circle id="Ellipse 1722" cx="250" cy="172" r="3" fill="#F0DBDB"/>
<circle id="Ellipse 1723" cx="256" cy="172" r="3" fill="#85586F"/>
<circle id="Ellipse 1724" cx="262" cy="172" r="3" fill="#85586F"/>
<circle id="Ellipse 1725" cx="268" cy="172" r="3" fill="#85586F"/>
<circle id="Ellipse 1764" cx="142" cy="178" r="3" fill="#F0DBDB"/>
<circle id="Ellipse 1765" cx="148" cy="178" r="3" fill="#85586F"/>
<circle id="Ellipse 1766" cx="154" cy="178" r="3" fill="#BA97A3"/>
<circle id="Ellipse 1767" cx="160" cy="178" r="3" fill="#F0DBDB"/>
<circle id="Ellipse 1768" cx="166" cy="178" r="3" fill="#F0DBDB"/>
<circle id="Ellipse 1769" cx="172" cy="178" r="3" fill="#F0DBDB"/>
<circle id="Ellipse 1770" cx="178" cy="178" r="3" fill="#BA97A3"/>
<circle id="Ellipse 1771" cx="184" cy="178" r="3" fill="#BA97A3"/>
<circle id="Ellipse 1772" cx="190" cy="178" r="3" fill="#F0DBDB"/>
<circle id="Ellipse 1773" cx="196" cy="178" r="3" fill="#85586F"/>
<circle id="Ellipse 1774" cx="202" cy="178" r="3" fill="#BA97A3"/>
<circle id="Ellipse 1775" cx="208" cy="178" r="3" fill="#F0DBDB"/>
<circle id="Ellipse 1776" cx="214" cy="178" r="3" fill="#85586F"/>
<circle id="Ellipse 1777" cx="220" cy="178" r="3" fill="#85586F"/>
<circle id="Ellipse 1778" cx="226" cy="178" r="3" fill="#F0DBDB"/>
<circle id="Ellipse 1779" cx="232" cy="178" r="3" fill="#BA97A3"/>
<circle id="Ellipse 1780" cx="238" cy="178" r="3" fill="#BA97A3"/>
<circle id="Ellipse 1781" cx="244" cy="178" r="3" fill="#F0DBDB"/>
<circle id="Ellipse 1782" cx="250" cy="178" r="3" fill="#BA97A3"/>
<circle id="Ellipse 1783" cx="256" cy="178" r="3" fill="#85586F"/>
<circle id="Ellipse 1784" cx="262" cy="178" r="3" fill="#85586F"/>
</g>
<defs>
<clipPath id="clip0_0_18579">
<rect width="360" height="180" fill="white"/>
</clipPath>
</defs>
</svg>
