<svg preserveAspectRatio="none" overflow="visible" style="display: block;" width="54.0009" height="331" viewBox="0 0 54.0009 331" fill="none" xmlns="http://www.w3.org/2000/svg">
<g id="Group 47">
<circle id="south / dot" cx="3" cy="3" r="3" transform="matrix(1 0 0 -1 6.00085 132)" fill="#85586F"/>
<circle id="south / dot_2" cx="3" cy="3" r="3" transform="matrix(1 0 0 -1 12.0009 132)" fill="#85586F"/>
<circle id="south / dot_3" cx="3" cy="3" r="3" transform="matrix(1 0 0 -1 18.0009 132)" fill="#85586F"/>
<circle id="south / dot_4" cx="3" cy="3" r="3" transform="matrix(1 0 0 -1 24.0009 132)" fill="#85586F"/>
<circle id="south / dot_5" cx="3" cy="3" r="3" transform="matrix(1 0 0 -1 30.0009 132)" fill="#85586F"/>
<circle id="south / dot_6" cx="3" cy="3" r="3" transform="matrix(1 0 0 -1 36.0009 132)" fill="#85586F"/>
<circle id="south / dot_7" cx="3" cy="3" r="3" transform="matrix(1 0 0 -1 42.0009 132)" fill="#85586F"/>
<circle id="south / dot_8" cx="3" cy="3" r="3" transform="matrix(1 0 0 -1 42 138)" fill="#85586F"/>
<circle id="south / dot_9" cx="3" cy="3" r="3" transform="matrix(1 0 0 -1 48 132)" fill="#85586F"/>
<circle id="south / dot_10" cx="3" cy="3" r="3" transform="matrix(1 0 0 -1 47.9991 138)" fill="#85586F"/>
<circle id="south / dot_11" cx="3" cy="3" r="3" transform="matrix(1 0 0 -1 48 144)" fill="#85586F"/>
<circle id="south / dot_12" cx="3" cy="3" r="3" transform="matrix(1 0 0 -1 0 132)" fill="#85586F"/>
<circle id="south / dot_13" cx="3" cy="3" r="3" transform="matrix(1 0 0 -1 0 138)" fill="#85586F"/>
<circle id="south / dot_14" cx="3" cy="3" r="3" transform="matrix(1 0 0 -1 0 144)" fill="#85586F"/>
<circle id="south / dot_15" cx="3" cy="3" r="3" transform="matrix(1 0 0 -1 6 138)" fill="#85586F"/>
<circle id="south / dot_16" cx="3" cy="3" r="3" transform="matrix(1 0 0 -1 42 102)" fill="#85586F"/>
<circle id="south / dot_17" cx="3" cy="3" r="3" transform="matrix(1 0 0 -1 6 102)" fill="#85586F"/>
<circle id="south / dot_18" cx="3" cy="3" r="3" transform="matrix(1 0 0 -1 6.00085 126)" fill="#85586F"/>
<circle id="south / dot_19" cx="3" cy="3" r="3" transform="matrix(1 0 0 -1 12.0009 126)" fill="#85586F"/>
<circle id="south / dot_20" cx="3" cy="3" r="3" transform="matrix(1 0 0 -1 18.0009 126)" fill="#85586F"/>
<circle id="south / dot_21" cx="3" cy="3" r="3" transform="matrix(1 0 0 -1 24.0009 126)" fill="#85586F"/>
<circle id="south / dot_22" cx="3" cy="3" r="3" transform="matrix(1 0 0 -1 30.0009 126)" fill="#85586F"/>
<circle id="south / dot_23" cx="3" cy="3" r="3" transform="matrix(1 0 0 -1 36.0009 126)" fill="#85586F"/>
<circle id="south / dot_24" cx="3" cy="3" r="3" transform="matrix(1 0 0 -1 42.0009 126)" fill="#85586F"/>
<circle id="south / dot_25" cx="3" cy="3" r="3" transform="matrix(1 0 0 -1 48 126)" fill="#85586F"/>
<circle id="south / dot_26" cx="3" cy="3" r="3" transform="matrix(1 0 0 -1 0 126)" fill="#85586F"/>
<circle id="south / dot_27" cx="3" cy="3" r="3" transform="matrix(1 0 0 -1 42 96)" fill="#85586F"/>
<circle id="south / dot_28" cx="3" cy="3" r="3" transform="matrix(1 0 0 -1 6 96)" fill="#85586F"/>
<circle id="south / dot_29" cx="3" cy="3" r="3" transform="matrix(1 0 0 -1 6.00085 114)" fill="#85586F"/>
<circle id="south / dot_30" cx="3" cy="3" r="3" transform="matrix(1 0 0 -1 12.0009 114)" fill="#85586F"/>
<circle id="south / dot_31" cx="3" cy="3" r="3" transform="matrix(1 0 0 -1 18.0009 114)" fill="#85586F"/>
<circle id="south / dot_32" cx="3" cy="3" r="3" transform="matrix(1 0 0 -1 24.0009 114)" fill="#85586F"/>
<circle id="south / dot_33" cx="3" cy="3" r="3" transform="matrix(1 0 0 -1 30.0009 114)" fill="#85586F"/>
<circle id="south / dot_34" cx="3" cy="3" r="3" transform="matrix(1 0 0 -1 36.0009 114)" fill="#85586F"/>
<circle id="south / dot_35" cx="3" cy="3" r="3" transform="matrix(1 0 0 -1 42.0009 114)" fill="#85586F"/>
<circle id="south / dot_36" cx="3" cy="3" r="3" transform="matrix(1 0 0 -1 48 114)" fill="#85586F"/>
<circle id="south / dot_37" cx="3" cy="3" r="3" transform="matrix(1 0 0 -1 0 114)" fill="#85586F"/>
<circle id="south / dot_38" cx="3" cy="3" r="3" transform="matrix(1 0 0 -1 42 84)" fill="#85586F"/>
<circle id="south / dot_39" cx="3" cy="3" r="3" transform="matrix(1 0 0 -1 6 84)" fill="#85586F"/>
<circle id="south / dot_40" cx="3" cy="3" r="3" transform="matrix(1 0 0 -1 6.00085 120)" fill="#85586F"/>
<circle id="south / dot_41" cx="3" cy="3" r="3" transform="matrix(1 0 0 -1 6.00085 108)" fill="#85586F"/>
<circle id="south / dot_42" cx="3" cy="3" r="3" transform="matrix(1 0 0 -1 12.0009 120)" fill="#85586F"/>
<circle id="south / dot_43" cx="3" cy="3" r="3" transform="matrix(1 0 0 -1 12.0009 108)" fill="#85586F"/>
<circle id="south / dot_44" cx="3" cy="3" r="3" transform="matrix(1 0 0 -1 18.0009 120)" fill="#85586F"/>
<circle id="south / dot_45" cx="3" cy="3" r="3" transform="matrix(1 0 0 -1 18.0009 108)" fill="#85586F"/>
<circle id="south / dot_46" cx="3" cy="3" r="3" transform="matrix(1 0 0 -1 24.0009 120)" fill="#85586F"/>
<circle id="south / dot_47" cx="3" cy="3" r="3" transform="matrix(1 0 0 -1 24.0009 108)" fill="#85586F"/>
<circle id="south / dot_48" cx="3" cy="3" r="3" transform="matrix(1 0 0 -1 30.0009 120)" fill="#85586F"/>
<circle id="south / dot_49" cx="3" cy="3" r="3" transform="matrix(1 0 0 -1 30.0009 108)" fill="#85586F"/>
<circle id="south / dot_50" cx="3" cy="3" r="3" transform="matrix(1 0 0 -1 36.0009 120)" fill="#85586F"/>
<circle id="south / dot_51" cx="3" cy="3" r="3" transform="matrix(1 0 0 -1 36.0009 108)" fill="#85586F"/>
<circle id="south / dot_52" cx="3" cy="3" r="3" transform="matrix(1 0 0 -1 42.0009 120)" fill="#85586F"/>
<circle id="south / dot_53" cx="3" cy="3" r="3" transform="matrix(1 0 0 -1 48 120)" fill="#85586F"/>
<circle id="south / dot_54" cx="3" cy="3" r="3" transform="matrix(1 0 0 -1 0 120)" fill="#85586F"/>
<circle id="south / dot_55" cx="3" cy="3" r="3" transform="matrix(1 0 0 -1 42 90)" fill="#85586F"/>
<circle id="south / dot_56" cx="3" cy="3" r="3" transform="matrix(1 0 0 -1 6 90)" fill="#85586F"/>
<circle id="south / dot_57" cx="3" cy="3" r="3" transform="matrix(1 0 0 -1 42.0009 108)" fill="#85586F"/>
<circle id="south / dot_58" cx="3" cy="3" r="3" transform="matrix(1 0 0 -1 48 108)" fill="#85586F"/>
<circle id="south / dot_59" cx="3" cy="3" r="3" transform="matrix(1 0 0 -1 0 108)" fill="#85586F"/>
<circle id="south / dot_60" cx="3" cy="3" r="3" transform="matrix(1 0 0 -1 42 78)" fill="#85586F"/>
<circle id="south / dot_61" cx="3" cy="3" r="3" transform="matrix(1 0 0 -1 6 78)" fill="#85586F"/>
<circle id="south / dot_62" cx="3" cy="3" r="3" transform="matrix(1 0 0 -1 12 102)" fill="#85586F"/>
<circle id="south / dot_63" cx="3" cy="3" r="3" transform="matrix(1 0 0 -1 12 90)" fill="#85586F"/>
<circle id="south / dot_64" cx="3" cy="3" r="3" transform="matrix(1 0 0 -1 18 102)" fill="#85586F"/>
<circle id="south / dot_65" cx="3" cy="3" r="3" transform="matrix(1 0 0 -1 18 90)" fill="#85586F"/>
<circle id="south / dot_66" cx="3" cy="3" r="3" transform="matrix(1 0 0 -1 24 102)" fill="#85586F"/>
<circle id="south / dot_67" cx="3" cy="3" r="3" transform="matrix(1 0 0 -1 24 90)" fill="#85586F"/>
<circle id="south / dot_68" cx="3" cy="3" r="3" transform="matrix(1 0 0 -1 30 102)" fill="#85586F"/>
<circle id="south / dot_69" cx="3" cy="3" r="3" transform="matrix(1 0 0 -1 30 90)" fill="#85586F"/>
<circle id="south / dot_70" cx="3" cy="3" r="3" transform="matrix(1 0 0 -1 36 102)" fill="#85586F"/>
<circle id="south / dot_71" cx="3" cy="3" r="3" transform="matrix(1 0 0 -1 36 90)" fill="#85586F"/>
<circle id="south / dot_72" cx="3" cy="3" r="3" transform="matrix(1 0 0 -1 12 84)" fill="#85586F"/>
<circle id="south / dot_73" cx="3" cy="3" r="3" transform="matrix(1 0 0 -1 18 84)" fill="#85586F"/>
<circle id="south / dot_74" cx="3" cy="3" r="3" transform="matrix(1 0 0 -1 24 84)" fill="#85586F"/>
<circle id="south / dot_75" cx="3" cy="3" r="3" transform="matrix(1 0 0 -1 30 84)" fill="#85586F"/>
<circle id="south / dot_76" cx="3" cy="3" r="3" transform="matrix(1 0 0 -1 36 84)" fill="#85586F"/>
<circle id="south / dot_77" cx="3" cy="3" r="3" transform="matrix(1 0 0 -1 12 96)" fill="#85586F"/>
<circle id="south / dot_78" cx="3" cy="3" r="3" transform="matrix(1 0 0 -1 18 96)" fill="#85586F"/>
<circle id="south / dot_79" cx="3" cy="3" r="3" transform="matrix(1 0 0 -1 24 96)" fill="#85586F"/>
<circle id="south / dot_80" cx="3" cy="3" r="3" transform="matrix(1 0 0 -1 30 96)" fill="#85586F"/>
<circle id="south / dot_81" cx="3" cy="3" r="3" transform="matrix(1 0 0 -1 36 96)" fill="#85586F"/>
<circle id="south / dot_82" cx="3" cy="3" r="3" transform="matrix(1 0 0 -1 12 78)" fill="#85586F"/>
<circle id="south / dot_83" cx="3" cy="3" r="3" transform="matrix(1 0 0 -1 18 78)" fill="#85586F"/>
<circle id="south / dot_84" cx="3" cy="3" r="3" transform="matrix(1 0 0 -1 24 78)" fill="#85586F"/>
<circle id="south / dot_85" cx="3" cy="3" r="3" transform="matrix(1 0 0 -1 30 78)" fill="#85586F"/>
<circle id="south / dot_86" cx="3" cy="3" r="3" transform="matrix(1 0 0 -1 36 78)" fill="#85586F"/>
<circle id="south / dot_87" cx="3" cy="3" r="3" transform="matrix(1 0 0 -1 18 72)" fill="#85586F"/>
<circle id="south / dot_88" cx="3" cy="3" r="3" transform="matrix(1 0 0 -1 12 72)" fill="#85586F"/>
<circle id="south / dot_89" cx="3" cy="3" r="3" transform="matrix(1 0 0 -1 18 60)" fill="#85586F"/>
<circle id="south / dot_90" cx="3" cy="3" r="3" transform="matrix(1 0 0 -1 12 60)" fill="#85586F"/>
<circle id="south / dot_91" cx="3" cy="3" r="3" transform="matrix(1 0 0 -1 24 72)" fill="#85586F"/>
<circle id="south / dot_92" cx="3" cy="3" r="3" transform="matrix(1 0 0 -1 24 60)" fill="#85586F"/>
<circle id="south / dot_93" cx="3" cy="3" r="3" transform="matrix(1 0 0 -1 30 72)" fill="#85586F"/>
<circle id="south / dot_94" cx="3" cy="3" r="3" transform="matrix(1 0 0 -1 36 72)" fill="#85586F"/>
<circle id="south / dot_95" cx="3" cy="3" r="3" transform="matrix(1 0 0 -1 30 60)" fill="#85586F"/>
<circle id="south / dot_96" cx="3" cy="3" r="3" transform="matrix(1 0 0 -1 36 60)" fill="#85586F"/>
<circle id="south / dot_97" cx="3" cy="3" r="3" transform="matrix(1 0 0 -1 18 54)" fill="#85586F"/>
<circle id="south / dot_98" cx="3" cy="3" r="3" transform="matrix(1 0 0 -1 12 54)" fill="#85586F"/>
<circle id="south / dot_99" cx="3" cy="3" r="3" transform="matrix(1 0 0 -1 24 54)" fill="#85586F"/>
<circle id="south / dot_100" cx="3" cy="3" r="3" transform="matrix(1 0 0 -1 30 54)" fill="#85586F"/>
<circle id="south / dot_101" cx="3" cy="3" r="3" transform="matrix(1 0 0 -1 36 54)" fill="#85586F"/>
<circle id="south / dot_102" cx="3" cy="3" r="3" transform="matrix(1 0 0 -1 18 66)" fill="#85586F"/>
<circle id="south / dot_103" cx="3" cy="3" r="3" transform="matrix(1 0 0 -1 12 66)" fill="#85586F"/>
<circle id="south / dot_104" cx="3" cy="3" r="3" transform="matrix(1 0 0 -1 24 66)" fill="#85586F"/>
<circle id="south / dot_105" cx="3" cy="3" r="3" transform="matrix(1 0 0 -1 30 66)" fill="#85586F"/>
<circle id="south / dot_106" cx="3" cy="3" r="3" transform="matrix(1 0 0 -1 36 66)" fill="#85586F"/>
<circle id="south / dot_107" cx="3" cy="3" r="3" transform="matrix(1 0 0 -1 18 48)" fill="#85586F"/>
<circle id="south / dot_108" cx="3" cy="3" r="3" transform="matrix(1 0 0 -1 18 36)" fill="#85586F"/>
<circle id="south / dot_109" cx="3" cy="3" r="3" transform="matrix(1 0 0 -1 24 48)" fill="#85586F"/>
<circle id="south / dot_110" cx="3" cy="3" r="3" transform="matrix(1 0 0 -1 24 36)" fill="#85586F"/>
<circle id="south / dot_111" cx="3" cy="3" r="3" transform="matrix(1 0 0 -1 30 48)" fill="#85586F"/>
<circle id="south / dot_112" cx="3" cy="3" r="3" transform="matrix(1 0 0 -1 30 36)" fill="#85586F"/>
<circle id="south / dot_113" cx="3" cy="3" r="3" transform="matrix(1 0 0 -1 18 42)" fill="#85586F"/>
<circle id="south / dot_114" cx="3" cy="3" r="3" transform="matrix(1 0 0 -1 18 30)" fill="#85586F"/>
<circle id="south / dot_115" cx="3" cy="3" r="3" transform="matrix(1 0 0 -1 24 42)" fill="#85586F"/>
<circle id="south / dot_116" cx="3" cy="3" r="3" transform="matrix(1 0 0 -1 24 30)" fill="#85586F"/>
<circle id="south / dot_117" cx="3" cy="3" r="3" transform="matrix(1 0 0 -1 30 42)" fill="#85586F"/>
<circle id="south / dot_118" cx="3" cy="3" r="3" transform="matrix(1 0 0 -1 30 30)" fill="#85586F"/>
<circle id="south / dot_119" cx="3" cy="3" r="3" transform="matrix(1 0 0 -1 24 24)" fill="#85586F"/>
<circle id="south / dot_120" cx="3" cy="3" r="3" transform="matrix(1 0 0 -1 24 6)" fill="#85586F"/>
<circle id="south / dot_121" cx="3" cy="3" r="3" transform="matrix(1 0 0 -1 24 18)" fill="#85586F"/>
<circle id="south / dot_122" cx="3" cy="3" r="3" transform="matrix(1 0 0 -1 24 12)" fill="#85586F"/>
<circle id="south / dot_123" cx="9.00085" cy="202" r="3" fill="#BA97A3"/>
<circle id="south / dot_124" cx="15.0009" cy="202" r="3" fill="#BA97A3"/>
<circle id="south / dot_125" cx="21.0009" cy="202" r="3" fill="#BA97A3"/>
<circle id="south / dot_126" cx="27.0009" cy="202" r="3" fill="#BA97A3"/>
<circle id="south / dot_127" cx="33.0009" cy="202" r="3" fill="#BA97A3"/>
<circle id="south / dot_128" cx="39.0009" cy="202" r="3" fill="#BA97A3"/>
<circle id="south / dot_129" cx="45.0009" cy="202" r="3" fill="#BA97A3"/>
<circle id="south / dot_130" cx="45" cy="196" r="3" fill="#BA97A3"/>
<circle id="south / dot_131" cx="51" cy="202" r="3" fill="#BA97A3"/>
<circle id="south / dot_132" cx="50.9991" cy="196" r="3" fill="#BA97A3"/>
<circle id="south / dot_133" cx="51" cy="190" r="3" fill="#BA97A3"/>
<circle id="south / dot_134" cx="3" cy="202" r="3" fill="#BA97A3"/>
<circle id="south / dot_135" cx="3" cy="196" r="3" fill="#BA97A3"/>
<circle id="south / dot_136" cx="3" cy="190" r="3" fill="#BA97A3"/>
<circle id="south / dot_137" cx="9" cy="196" r="3" fill="#BA97A3"/>
<circle id="south / dot_138" cx="45" cy="232" r="3" fill="#BA97A3"/>
<circle id="south / dot_139" cx="9" cy="232" r="3" fill="#BA97A3"/>
<circle id="south / dot_140" cx="9.00085" cy="208" r="3" fill="#BA97A3"/>
<circle id="south / dot_141" cx="15.0009" cy="208" r="3" fill="#BA97A3"/>
<circle id="south / dot_142" cx="21.0009" cy="208" r="3" fill="#BA97A3"/>
<circle id="south / dot_143" cx="27.0009" cy="208" r="3" fill="#BA97A3"/>
<circle id="south / dot_144" cx="33.0009" cy="208" r="3" fill="#BA97A3"/>
<circle id="south / dot_145" cx="39.0009" cy="208" r="3" fill="#BA97A3"/>
<circle id="south / dot_146" cx="45.0009" cy="208" r="3" fill="#BA97A3"/>
<circle id="south / dot_147" cx="51" cy="208" r="3" fill="#BA97A3"/>
<circle id="south / dot_148" cx="3" cy="208" r="3" fill="#BA97A3"/>
<circle id="south / dot_149" cx="45" cy="238" r="3" fill="#BA97A3"/>
<circle id="south / dot_150" cx="9" cy="238" r="3" fill="#BA97A3"/>
<circle id="south / dot_151" cx="9.00085" cy="220" r="3" fill="#BA97A3"/>
<circle id="south / dot_152" cx="15.0009" cy="220" r="3" fill="#BA97A3"/>
<circle id="south / dot_153" cx="21.0009" cy="220" r="3" fill="#BA97A3"/>
<circle id="south / dot_154" cx="27.0009" cy="220" r="3" fill="#BA97A3"/>
<circle id="south / dot_155" cx="33.0009" cy="220" r="3" fill="#BA97A3"/>
<circle id="south / dot_156" cx="39.0009" cy="220" r="3" fill="#BA97A3"/>
<circle id="south / dot_157" cx="45.0009" cy="220" r="3" fill="#BA97A3"/>
<circle id="south / dot_158" cx="51" cy="220" r="3" fill="#BA97A3"/>
<circle id="south / dot_159" cx="3" cy="220" r="3" fill="#BA97A3"/>
<circle id="south / dot_160" cx="45" cy="250" r="3" fill="#BA97A3"/>
<circle id="south / dot_161" cx="9" cy="250" r="3" fill="#BA97A3"/>
<circle id="south / dot_162" cx="9.00085" cy="214" r="3" fill="#BA97A3"/>
<circle id="south / dot_163" cx="9.00085" cy="226" r="3" fill="#BA97A3"/>
<circle id="south / dot_164" cx="15.0009" cy="214" r="3" fill="#BA97A3"/>
<circle id="south / dot_165" cx="15.0009" cy="226" r="3" fill="#BA97A3"/>
<circle id="south / dot_166" cx="21.0009" cy="214" r="3" fill="#BA97A3"/>
<circle id="south / dot_167" cx="21.0009" cy="226" r="3" fill="#BA97A3"/>
<circle id="south / dot_168" cx="27.0009" cy="214" r="3" fill="#BA97A3"/>
<circle id="south / dot_169" cx="27.0009" cy="226" r="3" fill="#BA97A3"/>
<circle id="south / dot_170" cx="33.0009" cy="214" r="3" fill="#BA97A3"/>
<circle id="south / dot_171" cx="33.0009" cy="226" r="3" fill="#BA97A3"/>
<circle id="south / dot_172" cx="39.0009" cy="214" r="3" fill="#BA97A3"/>
<circle id="south / dot_173" cx="39.0009" cy="226" r="3" fill="#BA97A3"/>
<circle id="south / dot_174" cx="45.0009" cy="214" r="3" fill="#BA97A3"/>
<circle id="south / dot_175" cx="51" cy="214" r="3" fill="#BA97A3"/>
<circle id="south / dot_176" cx="3" cy="214" r="3" fill="#BA97A3"/>
<circle id="south / dot_177" cx="45" cy="244" r="3" fill="#BA97A3"/>
<circle id="south / dot_178" cx="9" cy="244" r="3" fill="#BA97A3"/>
<circle id="south / dot_179" cx="45.0009" cy="226" r="3" fill="#BA97A3"/>
<circle id="south / dot_180" cx="51" cy="226" r="3" fill="#BA97A3"/>
<circle id="south / dot_181" cx="3" cy="226" r="3" fill="#BA97A3"/>
<circle id="south / dot_182" cx="45" cy="256" r="3" fill="#BA97A3"/>
<circle id="south / dot_183" cx="9" cy="256" r="3" fill="#BA97A3"/>
<circle id="south / dot_184" cx="15" cy="232" r="3" fill="#BA97A3"/>
<circle id="south / dot_185" cx="15" cy="244" r="3" fill="#BA97A3"/>
<circle id="south / dot_186" cx="21" cy="232" r="3" fill="#BA97A3"/>
<circle id="south / dot_187" cx="21" cy="244" r="3" fill="#BA97A3"/>
<circle id="south / dot_188" cx="27" cy="232" r="3" fill="#BA97A3"/>
<circle id="south / dot_189" cx="27" cy="244" r="3" fill="#BA97A3"/>
<circle id="south / dot_190" cx="33" cy="232" r="3" fill="#BA97A3"/>
<circle id="south / dot_191" cx="33" cy="244" r="3" fill="#BA97A3"/>
<circle id="south / dot_192" cx="39" cy="232" r="3" fill="#BA97A3"/>
<circle id="south / dot_193" cx="39" cy="244" r="3" fill="#BA97A3"/>
<circle id="south / dot_194" cx="15" cy="250" r="3" fill="#BA97A3"/>
<circle id="south / dot_195" cx="21" cy="250" r="3" fill="#BA97A3"/>
<circle id="south / dot_196" cx="27" cy="250" r="3" fill="#BA97A3"/>
<circle id="south / dot_197" cx="33" cy="250" r="3" fill="#BA97A3"/>
<circle id="south / dot_198" cx="39" cy="250" r="3" fill="#BA97A3"/>
<circle id="south / dot_199" cx="15" cy="238" r="3" fill="#BA97A3"/>
<circle id="south / dot_200" cx="21" cy="238" r="3" fill="#BA97A3"/>
<circle id="south / dot_201" cx="27" cy="238" r="3" fill="#BA97A3"/>
<circle id="south / dot_202" cx="33" cy="238" r="3" fill="#BA97A3"/>
<circle id="south / dot_203" cx="39" cy="238" r="3" fill="#BA97A3"/>
<circle id="south / dot_204" cx="15" cy="256" r="3" fill="#BA97A3"/>
<circle id="south / dot_205" cx="21" cy="256" r="3" fill="#BA97A3"/>
<circle id="south / dot_206" cx="27" cy="256" r="3" fill="#BA97A3"/>
<circle id="south / dot_207" cx="33" cy="256" r="3" fill="#BA97A3"/>
<circle id="south / dot_208" cx="39" cy="256" r="3" fill="#BA97A3"/>
<circle id="south / dot_209" cx="21" cy="262" r="3" fill="#BA97A3"/>
<circle id="south / dot_210" cx="15" cy="262" r="3" fill="#BA97A3"/>
<circle id="south / dot_211" cx="21" cy="274" r="3" fill="#BA97A3"/>
<circle id="south / dot_212" cx="15" cy="274" r="3" fill="#BA97A3"/>
<circle id="south / dot_213" cx="27" cy="262" r="3" fill="#BA97A3"/>
<circle id="south / dot_214" cx="27" cy="274" r="3" fill="#BA97A3"/>
<circle id="south / dot_215" cx="33" cy="262" r="3" fill="#BA97A3"/>
<circle id="south / dot_216" cx="39" cy="262" r="3" fill="#BA97A3"/>
<circle id="south / dot_217" cx="33" cy="274" r="3" fill="#BA97A3"/>
<circle id="south / dot_218" cx="39" cy="274" r="3" fill="#BA97A3"/>
<circle id="south / dot_219" cx="21" cy="280" r="3" fill="#BA97A3"/>
<circle id="south / dot_220" cx="15" cy="280" r="3" fill="#BA97A3"/>
<circle id="south / dot_221" cx="27" cy="280" r="3" fill="#BA97A3"/>
<circle id="south / dot_222" cx="33" cy="280" r="3" fill="#BA97A3"/>
<circle id="south / dot_223" cx="39" cy="280" r="3" fill="#BA97A3"/>
<circle id="south / dot_224" cx="21" cy="268" r="3" fill="#BA97A3"/>
<circle id="south / dot_225" cx="15" cy="268" r="3" fill="#BA97A3"/>
<circle id="south / dot_226" cx="27" cy="268" r="3" fill="#BA97A3"/>
<circle id="south / dot_227" cx="33" cy="268" r="3" fill="#BA97A3"/>
<circle id="south / dot_228" cx="39" cy="268" r="3" fill="#BA97A3"/>
<circle id="south / dot_229" cx="21" cy="286" r="3" fill="#BA97A3"/>
<circle id="south / dot_230" cx="21" cy="298" r="3" fill="#BA97A3"/>
<circle id="south / dot_231" cx="27" cy="286" r="3" fill="#BA97A3"/>
<circle id="south / dot_232" cx="27" cy="298" r="3" fill="#BA97A3"/>
<circle id="south / dot_233" cx="33" cy="286" r="3" fill="#BA97A3"/>
<circle id="south / dot_234" cx="33" cy="298" r="3" fill="#BA97A3"/>
<circle id="south / dot_235" cx="21" cy="292" r="3" fill="#BA97A3"/>
<circle id="south / dot_236" cx="21" cy="304" r="3" fill="#BA97A3"/>
<circle id="south / dot_237" cx="27" cy="292" r="3" fill="#BA97A3"/>
<circle id="south / dot_238" cx="27" cy="304" r="3" fill="#BA97A3"/>
<circle id="south / dot_239" cx="33" cy="292" r="3" fill="#BA97A3"/>
<circle id="south / dot_240" cx="33" cy="304" r="3" fill="#BA97A3"/>
<circle id="south / dot_241" cx="27" cy="310" r="3" fill="#BA97A3"/>
<circle id="south / dot_242" cx="27" cy="328" r="3" fill="#BA97A3"/>
<circle id="south / dot_243" cx="27" cy="316" r="3" fill="#BA97A3"/>
<circle id="south / dot_244" cx="27" cy="322" r="3" fill="#BA97A3"/>
<circle id="hub ring / dot" cx="33.4266" cy="189" r="3" fill="#85586F"/>
<circle id="hub ring / dot_2" cx="27.2118" cy="189.817" r="3" fill="#85586F"/>
<circle id="hub ring / dot_3" cx="21.0009" cy="189" r="3" fill="#85586F"/>
<circle id="hub ring / dot_4" cx="27.0009" cy="141" r="3" fill="#85586F"/>
<circle id="hub ring / dot_5" cx="33.2157" cy="141.818" r="3" fill="#85586F"/>
<circle id="hub ring / dot_6" cx="39.0009" cy="144.216" r="3" fill="#85586F"/>
<circle id="hub ring / dot_7" cx="43.9735" cy="148.03" r="3" fill="#85586F"/>
<circle id="hub ring / dot_8" cx="47.786" cy="153" r="3" fill="#85586F"/>
<circle id="hub ring / dot_9" cx="50.1844" cy="158.789" r="3" fill="#85586F"/>
<circle id="hub ring / dot_10" cx="51.0009" cy="165" r="3" fill="#85586F"/>
<circle id="hub ring / dot_11" cx="50.1844" cy="171.212" r="3" fill="#85586F"/>
<circle id="hub ring / dot_12" cx="47.786" cy="177" r="3" fill="#85586F"/>
<circle id="hub ring / dot_13" cx="43.9735" cy="181.971" r="3" fill="#85586F"/>
<circle id="hub ring / dot_14" cx="39.0009" cy="185.785" r="3" fill="#85586F"/>
<circle id="hub ring / dot_15" cx="15.0009" cy="185.785" r="3" fill="#85586F"/>
<circle id="hub ring / dot_16" cx="10.0321" cy="181.971" r="3" fill="#85586F"/>
<circle id="hub ring / dot_17" cx="6.2157" cy="177" r="3" fill="#85586F"/>
<circle id="hub ring / dot_18" cx="3.82117" cy="171.212" r="3" fill="#85586F"/>
<circle id="hub ring / dot_19" cx="3.00085" cy="165" r="3" fill="#85586F"/>
<circle id="hub ring / dot_20" cx="3.82117" cy="158.789" r="3" fill="#85586F"/>
<circle id="hub ring / dot_21" cx="6.2157" cy="153" r="3" fill="#85586F"/>
<circle id="hub ring / dot_22" cx="10.0321" cy="148.03" r="3" fill="#85586F"/>
<circle id="hub ring / dot_23" cx="15.0009" cy="144.216" r="3" fill="#85586F"/>
<circle id="hub ring / dot_24" cx="20.7899" cy="141.818" r="3" fill="#85586F"/>
<circle id="Ellipse 27007" cx="27.0009" cy="165" r="3" fill="#85586F"/>
</g>
</svg>
