<svg width="720" height="720" viewBox="0 0 720 720" fill="none" xmlns="http://www.w3.org/2000/svg">
<circle cx="399" cy="129" r="2" fill="#F0DBDB"/>
<circle cx="393" cy="135" r="2" fill="#F0DBDB"/>
<circle cx="399" cy="135" r="2" fill="#F0DBDB"/>
<circle cx="393" cy="141" r="2" fill="#F0DBDB"/>
<circle cx="399" cy="141" r="2" fill="#F0DBDB"/>
<circle cx="393" cy="147" r="2" fill="#F0DBDB"/>
<circle cx="399" cy="147" r="2" fill="#F0DBDB"/>
<circle cx="405" cy="147" r="2" fill="#F0DBDB"/>
<circle cx="393" cy="153" r="2" fill="#F0DBDB"/>
<circle cx="399" cy="153" r="2" fill="#F0DBDB"/>
<circle cx="405" cy="153" r="2" fill="#F0DBDB"/>
<circle cx="393" cy="159" r="2" fill="#F0DBDB"/>
<circle cx="399" cy="159" r="2" fill="#F0DBDB"/>
<circle cx="405" cy="159" r="2" fill="#F0DBDB"/>
<circle cx="393" cy="165" r="2" fill="#F0DBDB"/>
<circle cx="399" cy="165" r="2" fill="#F0DBDB"/>
<circle cx="405" cy="165" r="2" fill="#F0DBDB"/>
<circle cx="393" cy="171" r="2" fill="#F0DBDB"/>
<circle cx="399" cy="171" r="2" fill="#F0DBDB"/>
<circle cx="405" cy="171" r="2" fill="#F0DBDB"/>
<circle cx="411" cy="171" r="2" fill="#F0DBDB"/>
<circle cx="393" cy="177" r="2" fill="#F0DBDB"/>
<circle cx="399" cy="177" r="2" fill="#F0DBDB"/>
<circle cx="405" cy="177" r="2" fill="#F0DBDB"/>
<circle cx="411" cy="177" r="2" fill="#F0DBDB"/>
<circle cx="393" cy="183" r="2" fill="#F0DBDB"/>
<circle cx="399" cy="183" r="2" fill="#F0DBDB"/>
<circle cx="405" cy="183" r="2" fill="#F0DBDB"/>
<circle cx="411" cy="183" r="2" fill="#F0DBDB"/>
<circle cx="417" cy="183" r="2" fill="#F0DBDB"/>
<circle cx="393" cy="189" r="2" fill="#F0DBDB"/>
<circle cx="399" cy="189" r="2" fill="#F0DBDB"/>
<circle cx="405" cy="189" r="2" fill="#F0DBDB"/>
<circle cx="411" cy="189" r="2" fill="#F0DBDB"/>
<circle cx="417" cy="189" r="2" fill="#F0DBDB"/>
<circle cx="393" cy="195" r="2" fill="#F0DBDB"/>
<circle cx="399" cy="195" r="2" fill="#F0DBDB"/>
<circle cx="405" cy="195" r="2" fill="#F0DBDB"/>
<circle cx="393" cy="201" r="2" fill="#F0DBDB"/>
<circle cx="399" cy="201" r="2" fill="#F0DBDB"/>
<circle cx="405" cy="201" r="2" fill="#F0DBDB"/>
<circle cx="387" cy="207" r="2" fill="#F0DBDB"/>
<circle cx="393" cy="207" r="2" fill="#F0DBDB"/>
<circle cx="399" cy="207" r="2" fill="#F0DBDB"/>
<circle cx="405" cy="207" r="2" fill="#F0DBDB"/>
<circle cx="387" cy="213" r="2" fill="#F0DBDB"/>
<circle cx="393" cy="213" r="2" fill="#F0DBDB"/>
<circle cx="399" cy="213" r="2" fill="#F0DBDB"/>
<circle cx="405" cy="213" r="2" fill="#F0DBDB"/>
<circle cx="387" cy="219" r="2" fill="#F0DBDB"/>
<circle cx="393" cy="219" r="2" fill="#F0DBDB"/>
<circle cx="399" cy="219" r="2" fill="#F0DBDB"/>
<circle cx="405" cy="219" r="2" fill="#F0DBDB"/>
<circle cx="387" cy="225" r="2" fill="#F0DBDB"/>
<circle cx="393" cy="225" r="2" fill="#F0DBDB"/>
<circle cx="399" cy="225" r="2" fill="#F0DBDB"/>
<circle cx="387" cy="231" r="2" fill="#F0DBDB"/>
<circle cx="393" cy="231" r="2" fill="#F0DBDB"/>
<circle cx="399" cy="231" r="2" fill="#F0DBDB"/>
<circle cx="387" cy="237" r="2" fill="#F0DBDB"/>
<circle cx="393" cy="237" r="2" fill="#F0DBDB"/>
<circle cx="381" cy="243" r="2" fill="#F0DBDB"/>
<circle cx="387" cy="243" r="2" fill="#F0DBDB"/>
<circle cx="393" cy="243" r="2" fill="#F0DBDB"/>
<circle cx="381" cy="249" r="2" fill="#F0DBDB"/>
<circle cx="387" cy="249" r="2" fill="#F0DBDB"/>
<circle cx="393" cy="249" r="2" fill="#F0DBDB"/>
<circle cx="75" cy="219" r="2" fill="#F0DBDB"/>
<circle cx="381" cy="255" r="2" fill="#F0DBDB"/>
<circle cx="387" cy="255" r="2" fill="#F0DBDB"/>
<circle cx="393" cy="255" r="2" fill="#F0DBDB"/>
<circle cx="381" cy="261" r="2" fill="#F0DBDB"/>
<circle cx="387" cy="261" r="2" fill="#F0DBDB"/>
<circle cx="381" cy="267" r="2" fill="#F0DBDB"/>
<circle cx="387" cy="267" r="2" fill="#F0DBDB"/>
<circle cx="381" cy="273" r="2" fill="#F0DBDB"/>
<circle cx="387" cy="273" r="2" fill="#F0DBDB"/>
<circle cx="381" cy="279" r="2" fill="#F0DBDB"/>
<circle cx="387" cy="279" r="2" fill="#F0DBDB"/>
<circle cx="381" cy="285" r="2" fill="#F0DBDB"/>
<circle cx="387" cy="285" r="2" fill="#F0DBDB"/>
<circle cx="393" cy="285" r="2" fill="#F0DBDB"/>
<circle cx="381" cy="291" r="2" fill="#F0DBDB"/>
<circle cx="387" cy="291" r="2" fill="#F0DBDB"/>
<circle cx="393" cy="291" r="2" fill="#F0DBDB"/>
<circle cx="375" cy="297" r="2" fill="#F0DBDB"/>
<circle cx="381" cy="297" r="2" fill="#F0DBDB"/>
<circle cx="387" cy="297" r="2" fill="#F0DBDB"/>
<circle cx="393" cy="297" r="2" fill="#F0DBDB"/>
<circle cx="375" cy="303" r="2" fill="#F0DBDB"/>
<circle cx="381" cy="303" r="2" fill="#F0DBDB"/>
<circle cx="387" cy="303" r="2" fill="#F0DBDB"/>
<circle cx="375" cy="309" r="2" fill="#F0DBDB"/>
<circle cx="381" cy="309" r="2" fill="#F0DBDB"/>
<circle cx="387" cy="309" r="2" fill="#F0DBDB"/>
<circle cx="369" cy="315" r="2" fill="#F0DBDB"/>
<circle cx="375" cy="315" r="2" fill="#F0DBDB"/>
<circle cx="381" cy="315" r="2" fill="#F0DBDB"/>
<circle cx="387" cy="315" r="2" fill="#F0DBDB"/>
<circle cx="369" cy="321" r="2" fill="#F0DBDB"/>
<circle cx="375" cy="321" r="2" fill="#F0DBDB"/>
<circle cx="381" cy="321" r="2" fill="#F0DBDB"/>
<circle cx="369" cy="327" r="2" fill="#F0DBDB"/>
<circle cx="375" cy="327" r="2" fill="#F0DBDB"/>
<circle cx="381" cy="327" r="2" fill="#F0DBDB"/>
<circle cx="363" cy="333" r="2" fill="#F0DBDB"/>
<circle cx="369" cy="333" r="2" fill="#F0DBDB"/>
<circle cx="375" cy="333" r="2" fill="#F0DBDB"/>
<circle cx="381" cy="333" r="2" fill="#F0DBDB"/>
<circle cx="363" cy="339" r="2" fill="#F0DBDB"/>
<circle cx="369" cy="339" r="2" fill="#F0DBDB"/>
<circle cx="375" cy="339" r="2" fill="#F0DBDB"/>
<circle cx="381" cy="339" r="2" fill="#F0DBDB"/>
<circle cx="363" cy="345" r="2" fill="#F0DBDB"/>
<circle cx="369" cy="345" r="2" fill="#F0DBDB"/>
<circle cx="375" cy="345" r="2" fill="#F0DBDB"/>
<circle cx="381" cy="345" r="2" fill="#F0DBDB"/>
<circle cx="363" cy="351" r="2" fill="#F0DBDB"/>
<circle cx="369" cy="351" r="2" fill="#F0DBDB"/>
<circle cx="375" cy="351" r="2" fill="#F0DBDB"/>
<circle cx="381" cy="351" r="2" fill="#F0DBDB"/>
<circle cx="363" cy="357" r="2" fill="#F0DBDB"/>
<circle cx="369" cy="357" r="2" fill="#F0DBDB"/>
<circle cx="375" cy="357" r="2" fill="#F0DBDB"/>
<circle cx="363" cy="363" r="2" fill="#F0DBDB"/>
<circle cx="369" cy="363" r="2" fill="#F0DBDB"/>
<circle cx="375" cy="363" r="2" fill="#F0DBDB"/>
<circle cx="357" cy="369" r="2" fill="#F0DBDB"/>
<circle cx="363" cy="369" r="2" fill="#F0DBDB"/>
<circle cx="369" cy="369" r="2" fill="#F0DBDB"/>
<circle cx="375" cy="369" r="2" fill="#F0DBDB"/>
<circle cx="357" cy="375" r="2" fill="#F0DBDB"/>
<circle cx="363" cy="375" r="2" fill="#F0DBDB"/>
<circle cx="369" cy="375" r="2" fill="#F0DBDB"/>
<circle cx="375" cy="375" r="2" fill="#F0DBDB"/>
<circle cx="357" cy="381" r="2" fill="#F0DBDB"/>
<circle cx="363" cy="381" r="2" fill="#F0DBDB"/>
<circle cx="369" cy="381" r="2" fill="#F0DBDB"/>
<circle cx="375" cy="381" r="2" fill="#F0DBDB"/>
<circle cx="357" cy="387" r="2" fill="#F0DBDB"/>
<circle cx="369" cy="387" r="2" fill="#F0DBDB"/>
<circle cx="375" cy="387" r="2" fill="#F0DBDB"/>
<circle cx="357" cy="393" r="2" fill="#F0DBDB"/>
<circle cx="369" cy="393" r="2" fill="#F0DBDB"/>
<circle cx="375" cy="393" r="2" fill="#F0DBDB"/>
<circle cx="357" cy="399" r="2" fill="#F0DBDB"/>
<circle cx="369" cy="399" r="2" fill="#F0DBDB"/>
<circle cx="375" cy="399" r="2" fill="#F0DBDB"/>
<circle cx="369" cy="405" r="2" fill="#F0DBDB"/>
<circle cx="375" cy="405" r="2" fill="#F0DBDB"/>
<circle cx="369" cy="411" r="2" fill="#F0DBDB"/>
<circle cx="375" cy="411" r="2" fill="#F0DBDB"/>
<circle cx="357" cy="417" r="2" fill="#F0DBDB"/>
<circle cx="369" cy="417" r="2" fill="#F0DBDB"/>
<circle cx="375" cy="417" r="2" fill="#F0DBDB"/>
<circle cx="357" cy="423" r="2" fill="#F0DBDB"/>
<circle cx="363" cy="423" r="2" fill="#F0DBDB"/>
<circle cx="369" cy="423" r="2" fill="#F0DBDB"/>
<circle cx="375" cy="423" r="2" fill="#F0DBDB"/>
<circle cx="381" cy="423" r="2" fill="#F0DBDB"/>
<circle cx="357" cy="429" r="2" fill="#F0DBDB"/>
<circle cx="363" cy="429" r="2" fill="#F0DBDB"/>
<circle cx="369" cy="429" r="2" fill="#F0DBDB"/>
<circle cx="375" cy="429" r="2" fill="#F0DBDB"/>
<circle cx="351" cy="435" r="2" fill="#F0DBDB"/>
<circle cx="357" cy="435" r="2" fill="#F0DBDB"/>
<circle cx="363" cy="435" r="2" fill="#F0DBDB"/>
<circle cx="369" cy="435" r="2" fill="#F0DBDB"/>
<circle cx="375" cy="435" r="2" fill="#F0DBDB"/>
<circle cx="351" cy="441" r="2" fill="#F0DBDB"/>
<circle cx="357" cy="441" r="2" fill="#F0DBDB"/>
<circle cx="363" cy="441" r="2" fill="#F0DBDB"/>
<circle cx="369" cy="441" r="2" fill="#F0DBDB"/>
<circle cx="375" cy="441" r="2" fill="#F0DBDB"/>
<circle cx="345" cy="447" r="2" fill="#F0DBDB"/>
<circle cx="351" cy="447" r="2" fill="#F0DBDB"/>
<circle cx="357" cy="447" r="2" fill="#F0DBDB"/>
<circle cx="363" cy="447" r="2" fill="#F0DBDB"/>
<circle cx="369" cy="447" r="2" fill="#F0DBDB"/>
<circle cx="375" cy="447" r="2" fill="#F0DBDB"/>
<circle cx="357" cy="453" r="2" fill="#F0DBDB"/>
<circle cx="363" cy="453" r="2" fill="#F0DBDB"/>
<circle cx="369" cy="453" r="2" fill="#F0DBDB"/>
<circle cx="375" cy="453" r="2" fill="#F0DBDB"/>
<circle cx="357" cy="459" r="2" fill="#F0DBDB"/>
<circle cx="363" cy="459" r="2" fill="#F0DBDB"/>
<circle cx="369" cy="459" r="2" fill="#F0DBDB"/>
<circle cx="345" cy="465" r="2" fill="#F0DBDB"/>
<circle cx="351" cy="465" r="2" fill="#F0DBDB"/>
<circle cx="357" cy="465" r="2" fill="#F0DBDB"/>
<circle cx="363" cy="465" r="2" fill="#F0DBDB"/>
<circle cx="369" cy="465" r="2" fill="#F0DBDB"/>
<circle cx="345" cy="471" r="2" fill="#F0DBDB"/>
<circle cx="351" cy="471" r="2" fill="#F0DBDB"/>
<circle cx="357" cy="471" r="2" fill="#F0DBDB"/>
<circle cx="363" cy="471" r="2" fill="#F0DBDB"/>
<circle cx="369" cy="471" r="2" fill="#F0DBDB"/>
<circle cx="345" cy="477" r="2" fill="#F0DBDB"/>
<circle cx="351" cy="477" r="2" fill="#F0DBDB"/>
<circle cx="357" cy="477" r="2" fill="#F0DBDB"/>
<circle cx="363" cy="477" r="2" fill="#F0DBDB"/>
<circle cx="369" cy="477" r="2" fill="#F0DBDB"/>
<circle cx="345" cy="483" r="2" fill="#F0DBDB"/>
<circle cx="351" cy="483" r="2" fill="#F0DBDB"/>
<circle cx="357" cy="483" r="2" fill="#F0DBDB"/>
<circle cx="363" cy="483" r="2" fill="#F0DBDB"/>
<circle cx="345" cy="489" r="2" fill="#F0DBDB"/>
<circle cx="351" cy="489" r="2" fill="#F0DBDB"/>
<circle cx="357" cy="489" r="2" fill="#F0DBDB"/>
<circle cx="363" cy="489" r="2" fill="#F0DBDB"/>
<circle cx="345" cy="495" r="2" fill="#F0DBDB"/>
<circle cx="351" cy="495" r="2" fill="#F0DBDB"/>
<circle cx="357" cy="495" r="2" fill="#F0DBDB"/>
<circle cx="351" cy="501" r="2" fill="#F0DBDB"/>
<circle cx="357" cy="501" r="2" fill="#F0DBDB"/>
<circle cx="363" cy="501" r="2" fill="#F0DBDB"/>
<circle cx="351" cy="507" r="2" fill="#F0DBDB"/>
<circle cx="357" cy="507" r="2" fill="#F0DBDB"/>
<circle cx="363" cy="507" r="2" fill="#F0DBDB"/>
<circle cx="369" cy="507" r="2" fill="#F0DBDB"/>
<circle cx="363" cy="513" r="2" fill="#F0DBDB"/>
<circle cx="369" cy="513" r="2" fill="#F0DBDB"/>
<circle cx="363" cy="519" r="2" fill="#F0DBDB"/>
<circle cx="369" cy="519" r="2" fill="#F0DBDB"/>
<circle cx="375" cy="519" r="2" fill="#F0DBDB"/>
<circle cx="357" cy="525" r="2" fill="#F0DBDB"/>
<circle cx="363" cy="525" r="2" fill="#F0DBDB"/>
<circle cx="369" cy="525" r="2" fill="#F0DBDB"/>
<circle cx="375" cy="525" r="2" fill="#F0DBDB"/>
<circle cx="381" cy="525" r="2" fill="#F0DBDB"/>
<circle cx="387" cy="525" r="2" fill="#F0DBDB"/>
<circle cx="393" cy="525" r="2" fill="#F0DBDB"/>
<circle cx="399" cy="525" r="2" fill="#F0DBDB"/>
<circle cx="363" cy="531" r="2" fill="#F0DBDB"/>
<circle cx="369" cy="531" r="2" fill="#F0DBDB"/>
<circle cx="375" cy="531" r="2" fill="#F0DBDB"/>
<circle cx="381" cy="531" r="2" fill="#F0DBDB"/>
<circle cx="387" cy="531" r="2" fill="#F0DBDB"/>
<circle cx="393" cy="531" r="2" fill="#F0DBDB"/>
<circle cx="363" cy="537" r="2" fill="#F0DBDB"/>
<circle cx="369" cy="537" r="2" fill="#F0DBDB"/>
<circle cx="375" cy="537" r="2" fill="#F0DBDB"/>
<circle cx="381" cy="537" r="2" fill="#F0DBDB"/>
<circle cx="393" cy="537" r="2" fill="#F0DBDB"/>
<circle cx="399" cy="537" r="2" fill="#F0DBDB"/>
<circle cx="405" cy="537" r="2" fill="#F0DBDB"/>
<circle cx="363" cy="543" r="2" fill="#F0DBDB"/>
<circle cx="369" cy="543" r="2" fill="#F0DBDB"/>
<circle cx="375" cy="543" r="2" fill="#F0DBDB"/>
<circle cx="381" cy="543" r="2" fill="#F0DBDB"/>
<circle cx="393" cy="543" r="2" fill="#F0DBDB"/>
<circle cx="399" cy="543" r="2" fill="#F0DBDB"/>
<circle cx="405" cy="543" r="2" fill="#F0DBDB"/>
<circle cx="363" cy="549" r="2" fill="#F0DBDB"/>
<circle cx="369" cy="549" r="2" fill="#F0DBDB"/>
<circle cx="375" cy="549" r="2" fill="#F0DBDB"/>
<circle cx="381" cy="549" r="2" fill="#F0DBDB"/>
<circle cx="393" cy="549" r="2" fill="#F0DBDB"/>
<circle cx="399" cy="549" r="2" fill="#F0DBDB"/>
<circle cx="405" cy="549" r="2" fill="#F0DBDB"/>
<circle cx="369" cy="555" r="2" fill="#F0DBDB"/>
<circle cx="375" cy="555" r="2" fill="#F0DBDB"/>
<circle cx="381" cy="555" r="2" fill="#F0DBDB"/>
<circle cx="387" cy="555" r="2" fill="#F0DBDB"/>
<circle cx="393" cy="555" r="2" fill="#F0DBDB"/>
<circle cx="399" cy="555" r="2" fill="#F0DBDB"/>
<circle cx="405" cy="555" r="2" fill="#F0DBDB"/>
<circle cx="381" cy="561" r="2" fill="#F0DBDB"/>
<circle cx="387" cy="561" r="2" fill="#F0DBDB"/>
<circle cx="393" cy="561" r="2" fill="#F0DBDB"/>
<circle cx="399" cy="561" r="2" fill="#F0DBDB"/>
<circle cx="405" cy="561" r="2" fill="#F0DBDB"/>
<circle cx="387" cy="567" r="2" fill="#F0DBDB"/>
<circle cx="399" cy="567" r="2" fill="#F0DBDB"/>
<circle cx="405" cy="567" r="2" fill="#F0DBDB"/>
<circle cx="399" cy="573" r="2" fill="#F0DBDB"/>
<circle cx="405" cy="573" r="2" fill="#F0DBDB"/>
<circle cx="411" cy="573" r="2" fill="#F0DBDB"/>
<circle cx="417" cy="573" r="2" fill="#F0DBDB"/>
<circle cx="411" cy="579" r="2" fill="#F0DBDB"/>
</svg>
